<?xml version="1.0" encoding="utf-8"?>
<svg viewBox="0 0 500 500" xmlns="http://www.w3.org/2000/svg" xmlns:bx="https://boxy-svg.com">
  <defs>
    <bx:guide x="140" y="143.797" angle="0"/>
  </defs>
  <rect width="500" height="500" rx="2" ry="2" style="fill: rgb(55, 152, 55);"/>
  <rect style="fill: rgb(255, 255, 255);" x="40" y="22.5" width="200" height="20"/>
  <rect style="fill: rgb(255, 255, 255);" x="26.906" y="50.414" width="150" height="20" transform="matrix(0.99999, -0.004371, 0, 1.00001, 38.094269, 2.75851)"/>
  <rect style="fill: rgb(255, 255, 255);" x="17.938" y="50.413" width="100" height="20" transform="matrix(0.99999, -0.004371, 0, 1.00001, 72.06218, 32.502247)"/>
  <path d="M 145.248 195.398 L 145.248 217.774 L 134.8 217.729 L 134.8 195.353 L 145.248 195.398 Z M 145.248 156.459 L 145.248 178.835 L 134.8 178.79 L 134.8 156.414 L 145.248 156.459 Z M 145.248 117.472 L 145.248 139.848 L 134.8 139.802 L 134.8 117.426 L 145.248 117.472 Z" style="fill: rgb(255, 255, 255);"/>
  <path d="M 353.212 86.431 L 353.216 64.103 L 364.41 64.025 L 364.408 86.509 L 353.212 86.431 Z M 364.381 44.865 L 353.248 44.837 L 353.239 32.953 L 342 32.948 L 342.046 22.5 L 364.422 22.5 L 364.381 44.865 Z M 323.676 32.948 L 301.3 32.948 L 301.346 22.5 L 323.722 22.5 L 323.676 32.948 Z M 282.065 32.948 L 259.689 32.948 L 259.734 22.5 L 282.11 22.5 L 282.065 32.948 Z" style="fill: rgb(255, 255, 255);"/>
  <path d="M 407.25 150.8 L 407.25 362.572 L 387.25 362.572 L 387.25 150.8 L 407.25 150.8 Z M 362.25 150.8 L 362.25 362.572 L 342.25 362.572 L 342.25 150.8 L 362.25 150.8 Z M 317.25 150.8 L 317.25 362.572 L 297.25 362.572 L 297.25 150.8 L 317.25 150.8 Z" style="fill: rgb(255, 255, 255);"/>
  <path d="M 75.75 277.651 L 105.75 277.52 L 105.75 307.52 L 75.75 307.651 L 75.75 277.651 Z M 130.747 277.651 L 160.747 277.52 L 160.747 307.52 L 130.747 307.651 L 130.747 277.651 Z M 185.726 277.651 L 215.726 277.52 L 215.726 307.52 L 185.726 307.651 L 185.726 277.651 Z M 75.75 332.631 L 105.75 332.5 L 105.75 362.5 L 75.75 362.631 L 75.75 332.631 Z M 130.747 332.631 L 160.747 332.5 L 160.747 362.5 L 130.747 362.631 L 130.747 332.631 Z M 185.726 332.631 L 215.726 332.5 L 215.726 362.5 L 185.726 362.631 L 185.726 332.631 Z" style="fill: rgb(255, 255, 255);"/>
  <path d="M 372.297 407.38 L 333.202 407.551 L 333.202 442.022 L 372.297 442.014 Z M 315.25 389.677 L 390.249 389.349 L 390.249 442.01 L 440 442 L 438.987 130.694 L 265.538 130.669 C 265.538 163.281 265.515 442.036 265.515 442.036 L 315.25 442.026 Z M 27.544 230.555 L 240.529 231.445 L 240.529 105.676 L 464 105.7 L 464 467 L 26 467 Z M 50.995 442.039 L 108.25 442.027 L 108.25 389.677 L 183.249 389.349 L 183.249 442.012 L 240.5 442 L 240.523 255.554 L 51.004 255.622 Z M 165.297 407.38 L 126.202 407.551 L 126.202 442.024 L 165.297 442.015 Z" style="fill: rgb(255, 255, 255);"/>
</svg>