<?xml version="1.0" encoding="utf-8"?>
<svg viewBox="0 0 400 400" style="shape-rendering: crispedges;" width="400px" height="400px" xmlns="http://www.w3.org/2000/svg">
  <path d="M 312.076 299.696 C 305.053 295.934 297.025 293.8 288.5 293.8 C 260.886 293.8 238.5 316.186 238.5 343.8 C 238.5 344.204 238.505 344.607 238.514 345.01 C 226.224 348.265 213.315 350 200 350 C 186.685 350 173.775 348.265 161.485 345.009 C 161.495 344.594 161.5 344.178 161.5 343.76 C 161.5 316.146 139.114 293.76 111.5 293.76 C 102.965 293.76 94.929 295.899 87.899 299.669 C 73.882 283.915 63.136 265.187 56.726 244.549 C 72.916 236.273 84 219.431 84 200 C 84 180.569 72.916 163.727 56.726 155.451 C 63.136 134.814 73.883 116.085 87.9 100.331 C 94.929 104.101 102.965 106.24 111.5 106.24 C 139.114 106.24 161.5 83.854 161.5 56.24 C 161.5 55.822 161.495 55.406 161.485 54.991 C 173.775 51.735 186.685 50 200 50 C 213.315 50 226.224 51.735 238.514 54.991 C 238.505 55.393 238.5 55.796 238.5 56.2 C 238.5 83.814 260.886 106.2 288.5 106.2 C 297.025 106.2 305.052 104.066 312.076 100.304 C 326.007 115.954 336.71 134.541 343.139 155.02 C 326.48 163.131 315 180.225 315 200 C 315 219.775 326.48 236.869 343.139 244.98 C 336.71 265.459 326.007 284.046 312.076 299.696 Z" style="fill: none; stroke: rgb(125, 125, 125); transform-box: fill-box; transform-origin: 50% 50%; stroke-width: 12px;" transform="matrix(0.965926, 0.258819, -0.258819, 0.965926, -0.000001, 0.000001)">
    <title>Cog</title>
  </path>
  <title>power</title>
  <desc>Created with Sketch.</desc>
  <path d="M 156.523 209.971 L 155.819 209.783 C 144.781 206.825 142.536 198.067 150.762 190.208 L 226.193 118.128 C 243.377 101.707 246.728 104.481 233.677 124.325 L 204.645 168.47 C 198.377 177.999 202.278 188.017 213.277 190.965 L 244.124 199.23 L 243.959 199.325 L 244.662 199.513 C 255.701 202.471 257.944 211.229 249.721 219.087 L 177.485 288.113 C 158.554 306.204 154.859 303.131 169.275 281.212 L 195.838 240.826 C 202.105 231.296 198.204 221.277 187.204 218.33 L 156.358 210.065 L 156.523 209.971 Z M 326.617 280.512 C 312.625 268.365 305.961 248.882 311.079 229.781 C 316.197 210.68 331.71 197.14 349.901 193.617 C 348.991 172.172 343.464 151.448 334.058 132.726 C 326.299 134.541 317.994 134.525 309.759 132.319 C 283.086 125.172 267.257 97.755 274.404 71.081 C 274.508 70.691 274.617 70.303 274.73 69.917 C 263.702 63.591 251.682 58.574 238.82 55.128 C 225.959 51.682 213.04 50.017 200.326 49.981 C 200.228 50.384 200.125 50.787 200.017 51.191 C 192.87 77.864 165.453 93.693 138.78 86.546 C 130.536 84.337 123.327 80.191 117.513 74.731 C 99.896 86.32 84.668 101.629 73.135 119.904 C 86.632 132.088 92.979 151.225 87.95 169.994 C 82.921 188.763 67.855 202.162 50.075 205.966 C 50.925 227.56 56.458 248.431 65.92 267.276 C 73.686 265.454 82.002 265.468 90.246 267.677 C 116.919 274.824 132.748 302.241 125.601 328.914 C 125.493 329.318 125.381 329.718 125.264 330.117 C 136.292 336.443 148.313 341.46 161.175 344.906 C 174.036 348.352 186.954 350.017 199.668 350.054 C 199.763 349.663 199.863 349.272 199.967 348.882 C 207.114 322.209 234.532 306.379 261.205 313.526 C 269.439 315.733 276.641 319.872 282.451 325.323 C 299.958 313.812 315.107 298.629 326.617 280.512 Z" style="fill: rgb(226, 103, 31);"/>
</svg>