<?xml version="1.0" encoding="utf-8"?>
<svg viewBox="0 0 400 400" style="shape-rendering: crispedges;" width="400px" height="400px" xmlns="http://www.w3.org/2000/svg">
  <path d="M 312.076 299.696 C 305.053 295.934 297.025 293.8 288.5 293.8 C 260.886 293.8 238.5 316.186 238.5 343.8 C 238.5 344.204 238.505 344.607 238.514 345.01 C 226.224 348.265 213.315 350 200 350 C 186.685 350 173.775 348.265 161.485 345.009 C 161.495 344.594 161.5 344.178 161.5 343.76 C 161.5 316.146 139.114 293.76 111.5 293.76 C 102.965 293.76 94.929 295.899 87.899 299.669 C 73.882 283.915 63.136 265.187 56.726 244.549 C 72.916 236.273 84 219.431 84 200 C 84 180.569 72.916 163.727 56.726 155.451 C 63.136 134.814 73.883 116.085 87.9 100.331 C 94.929 104.101 102.965 106.24 111.5 106.24 C 139.114 106.24 161.5 83.854 161.5 56.24 C 161.5 55.822 161.495 55.406 161.485 54.991 C 173.775 51.735 186.685 50 200 50 C 213.315 50 226.224 51.735 238.514 54.991 C 238.505 55.393 238.5 55.796 238.5 56.2 C 238.5 83.814 260.886 106.2 288.5 106.2 C 297.025 106.2 305.052 104.066 312.076 100.304 C 326.007 115.954 336.71 134.541 343.139 155.02 C 326.48 163.131 315 180.225 315 200 C 315 219.775 326.48 236.869 343.139 244.98 C 336.71 265.459 326.007 284.046 312.076 299.696 Z" style="fill: none; transform-box: fill-box; transform-origin: 50% 50%; stroke-width: 12px; stroke: rgb(0, 0, 0);" transform="matrix(0.965926, 0.258819, -0.258819, 0.965926, -0.000001, 0.000001)">
    <title>Cog Border</title>
  </path>
  <title>power</title>
  <desc>Created with Sketch.</desc>
  <path d="M 282.451 325.323 C 276.641 319.872 269.439 315.733 261.205 313.526 C 234.532 306.379 207.114 322.209 199.967 348.882 C 199.863 349.272 199.763 349.663 199.668 350.054 C 186.954 350.017 174.036 348.352 161.175 344.906 C 148.313 341.46 136.292 336.443 125.264 330.117 C 125.381 329.718 125.493 329.318 125.601 328.914 C 132.748 302.241 116.919 274.824 90.246 267.677 C 82.002 265.468 73.686 265.454 65.92 267.276 C 56.458 248.431 50.925 227.56 50.075 205.966 C 67.855 202.162 82.921 188.763 87.95 169.994 C 92.979 151.225 86.632 132.088 73.135 119.904 C 84.668 101.629 99.896 86.32 117.513 74.731 C 123.327 80.191 130.536 84.337 138.78 86.546 C 165.453 93.693 192.87 77.864 200.017 51.191 C 200.125 50.787 200.228 50.384 200.326 49.981 C 213.04 50.017 225.959 51.682 238.82 55.128 C 251.682 58.574 263.702 63.591 274.73 69.917 C 274.617 70.303 274.508 70.691 274.404 71.081 C 267.257 97.755 283.086 125.172 309.759 132.319 C 317.994 134.525 326.299 134.541 334.058 132.726 C 343.464 151.448 348.991 172.172 349.901 193.617 C 331.71 197.14 316.197 210.68 311.079 229.781 C 305.961 248.882 312.625 268.365 326.617 280.512 C 315.107 298.629 299.958 313.812 282.451 325.323 Z" style="fill: rgb(226, 103, 31); visibility: hidden;">
    <title>Cog</title>
  </path>
  <g transform="matrix(0.824713, 0, 0, 0.824713, 38.56583, 30.502077)" style="">
    <title>Shades</title>
    <path d="M 70 79 L 186 71 L 184 190 Z" style="fill: rgb(237, 129, 41);"/>
    <path d="M 70 79 L 60 195 L 184 190 Z" style="fill: rgb(229, 123, 35);"/>
    <path d="M 186 71 L 188.238 42.155 C 191.533 37.019 194.102 31.295 195.766 25.086 C 195.897 24.596 196.022 24.108 196.141 23.619 C 211.557 23.663 227.222 25.682 242.817 29.86 C 258.413 34.038 272.987 40.122 286.359 47.792 C 286.222 48.26 286.09 48.731 285.964 49.204 C 284.363 55.178 283.713 61.182 283.921 67.057 Z" style="fill: rgb(242, 132, 47);"/>
    <path d="M 70 79 L 95.275 53.928 C 95.425 53.828 95.576 53.728 95.727 53.629 C 102.777 60.25 111.518 65.277 121.514 67.956 C 147.647 74.958 174.369 63.771 188.238 42.155 L 186 71 Z" style="fill: rgb(247, 149, 76);"/>
    <path d="M 70 79 L 64.892 79.167 C 65.72 78.311 66.557 77.464 67.401 76.625 Z" style="fill: rgb(233, 120, 37);"/>
    <path d="M 60 195 L 51.901 186.901 C 55.413 181.589 58.141 175.629 59.88 169.14 C 65.978 146.382 58.282 123.177 41.917 108.404 C 48.608 97.802 56.324 88.023 64.892 79.167 L 70 79 Z" style="fill: rgb(246, 153, 83);"/>
    <path d="M 60 195 L 45.484 195 C 47.834 192.506 49.984 189.8 51.901 186.901 Z" style="fill: rgb(241, 133, 51);"/>
    <path d="M 70 79 L 69.748 74.335 C 77.648 66.763 86.198 59.937 95.275 53.928 Z" style="fill: rgb(243, 144, 72);"/>
    <path d="M 186 71 L 283.921 67.057 C 284.325 78.512 287.991 89.473 294.23 98.75 L 184 190 Z" style="fill: rgb(234, 140, 69);"/>
    <path d="M 60 195 L 74.866 292.302 C 71.055 290.333 66.977 288.741 62.664 287.585 C 52.668 284.906 42.585 284.889 33.168 287.099 C 25.797 272.418 20.392 256.722 17.196 240.432 Z" style="fill: rgb(239, 133, 52);"/>
    <path d="M 184 190 L 98.726 314.567 C 93.056 305.272 84.891 297.483 74.866 292.302 L 60 195 Z" style="fill: rgb(242, 151, 81);"/>
    <path d="M 341 205 L 184 190 L 294.23 98.75 C 302.115 110.476 314.112 119.513 328.833 123.457 C 331.747 124.238 334.668 124.792 337.577 125.131 Z" style="fill: rgb(225, 127, 53);"/>
    <path d="M 184 190 L 191 338 L 107.166 338.769 C 106.103 330.126 103.187 321.88 98.726 314.567 Z" style="fill: rgb(224, 127, 53);"/>
    <path d="M 184 190 L 341 205 L 339.852 221.793 C 335.642 227.613 332.404 234.284 330.434 241.634 C 326.296 257.078 328.51 272.727 335.475 285.808 L 333 322 Z" style="fill: rgb(224, 136, 63);"/>
    <path d="M 60 195 L 17.196 240.432 C 15.418 231.367 14.324 222.119 13.955 212.758 C 26.011 210.178 37.039 203.96 45.484 195 Z" style="fill: rgb(237, 154, 90);"/>
    <path d="M 70 79 L 67.401 76.625 C 68.177 75.854 68.959 75.091 69.748 74.335 Z" style="fill: rgb(230, 112, 24);"/>
    <path d="M 191 338 L 333 322 L 184 190 Z" style="fill: rgb(237, 131, 43);"/>
    <path d="M 191 338 L 195.456 387.015 C 195.418 387.167 195.38 387.318 195.343 387.47 C 179.927 387.426 164.263 385.407 148.669 381.228 C 133.073 377.05 118.497 370.967 105.125 363.296 C 105.267 362.812 105.403 362.327 105.534 361.837 C 107.612 354.082 108.088 346.276 107.166 338.769 Z" style="fill: rgb(250, 170, 107);"/>
    <path d="M 333 322 L 332.729 325.253 C 321.852 337.68 309.378 348.503 295.721 357.483 C 288.676 350.873 279.944 345.855 269.96 343.179 C 249.604 337.725 228.89 343.307 214.172 356.257 L 191 338 Z" style="fill: rgb(217, 127, 62);"/>
    <path d="M 341 205 L 337.577 125.131 C 344.639 125.955 351.634 125.51 358.297 123.951 C 369.702 146.652 376.404 171.781 377.507 197.784 C 371.341 198.978 365.428 201.122 359.974 204.096 Z" style="fill: rgb(236, 142, 70);"/>
    <path d="M 341 205 L 359.974 204.096 C 355.785 206.381 351.866 209.156 348.31 212.368 Z" style="fill: rgb(242, 157, 94);"/>
    <path d="M 341 205 L 348.31 212.368 C 345.19 215.186 342.35 218.34 339.852 221.793 Z M 333 322 L 335.475 285.808 C 338.955 292.345 343.621 298.24 349.274 303.148 C 345.034 309.822 340.386 316.168 335.375 322.161 Z" style="fill: rgb(220, 133, 71);"/>
    <path d="M 191 338 L 214.172 356.257 C 205.505 363.882 198.918 374.063 195.706 386.049 C 195.62 386.371 195.537 386.693 195.456 387.015 Z" style="fill: rgb(244, 159, 95);"/>
    <path d="M 333 322 L 335.375 322.161 C 334.504 323.202 333.622 324.233 332.729 325.253 Z" style="fill: rgb(236, 163, 109);"/>
  </g>
  <title>power</title>
  <desc>Created with Sketch.</desc>
  <path d="M 159.035 217.742 L 158.272 217.742 C 146.297 217.742 141.652 209.487 147.844 199.303 L 204.64 105.894 C 217.579 84.614 221.723 86.513 213.896 110.136 L 196.484 162.688 C 192.725 174.033 199.389 183.116 211.321 183.116 L 244.783 183.116 L 244.641 183.254 L 245.404 183.254 C 257.38 183.254 262.024 191.51 255.832 201.694 L 201.443 291.144 C 187.188 314.587 182.617 312.48 191.262 286.386 L 207.193 238.309 C 210.951 226.964 204.288 217.881 192.354 217.881 L 158.894 217.881 L 159.035 217.742 Z" style="transform-box: fill-box; transform-origin: 50% 50%; visibility: hidden;" transform="matrix(0.965926, 0.258819, -0.258819, 0.965926, 0.000004, 0.000004)">
    <title>Flash</title>
  </path>
</svg>