<?xml version="1.0" encoding="utf-8"?>
<svg viewBox="0 0 400 400" style="shape-rendering: crispedges;" width="400px" height="400px" xmlns="http://www.w3.org/2000/svg">
  <ellipse style="stroke: rgb(0, 0, 0); paint-order: fill; fill: rgb(0, 114, 134); stroke-width: 10px;" cx="200" cy="200" rx="195" ry="195"/>
  <path d="M 312.076 299.696 C 305.053 295.934 297.025 293.8 288.5 293.8 C 260.886 293.8 238.5 316.186 238.5 343.8 C 238.5 344.204 238.505 344.607 238.514 345.01 C 226.224 348.265 213.315 350 200 350 C 186.685 350 173.775 348.265 161.485 345.009 C 161.495 344.594 161.5 344.178 161.5 343.76 C 161.5 316.146 139.114 293.76 111.5 293.76 C 102.965 293.76 94.929 295.899 87.899 299.669 C 73.882 283.915 63.136 265.187 56.726 244.549 C 72.916 236.273 84 219.431 84 200 C 84 180.569 72.916 163.727 56.726 155.451 C 63.136 134.814 73.883 116.085 87.9 100.331 C 94.929 104.101 102.965 106.24 111.5 106.24 C 139.114 106.24 161.5 83.854 161.5 56.24 C 161.5 55.822 161.495 55.406 161.485 54.991 C 173.775 51.735 186.685 50 200 50 C 213.315 50 226.224 51.735 238.514 54.991 C 238.505 55.393 238.5 55.796 238.5 56.2 C 238.5 83.814 260.886 106.2 288.5 106.2 C 297.025 106.2 305.052 104.066 312.076 100.304 C 326.007 115.954 336.71 134.541 343.139 155.02 C 326.48 163.131 315 180.225 315 200 C 315 219.775 326.48 236.869 343.139 244.98 C 336.71 265.459 326.007 284.046 312.076 299.696 Z" style="fill: none; transform-box: fill-box; transform-origin: 50% 50%; stroke-width: 12px; stroke: rgb(0, 0, 0);" transform="matrix(0.965926, 0.258819, -0.258819, 0.965926, -0.000001, 0.000001)">
    <title>Cog Border</title>
  </path>
  <title>power</title>
  <desc>Created with Sketch.</desc>
  <path d="M 310.014 367.033 C 302.263 359.767 292.655 354.25 281.67 351.308 C 246.085 341.781 209.507 362.882 199.972 398.438 C 199.833 398.958 199.7 399.479 199.573 400 C 182.611 399.951 165.377 397.731 148.219 393.138 C 131.06 388.544 115.023 381.856 100.31 373.424 C 100.466 372.892 100.616 372.359 100.76 371.82 C 110.295 336.265 89.177 299.718 53.592 290.191 C 42.594 287.246 31.5 287.227 21.139 289.656 C 8.516 264.536 1.134 236.714 0 207.929 C 23.72 202.859 43.82 184.998 50.529 159.978 C 57.239 134.959 48.771 109.449 30.765 93.208 C 46.151 68.847 66.467 48.44 89.97 32.992 C 97.726 40.27 107.344 45.797 118.342 48.741 C 153.927 58.268 190.504 37.168 200.039 1.613 C 200.183 1.074 200.32 0.537 200.451 0 C 217.413 0.048 234.648 2.267 251.806 6.861 C 268.965 11.455 285.001 18.142 299.714 26.575 C 299.563 27.089 299.418 27.607 299.279 28.126 C 289.744 63.683 310.862 100.23 346.446 109.757 C 357.433 112.698 368.512 112.719 378.864 110.3 C 391.412 135.256 398.786 162.882 400 191.468 C 375.731 196.164 355.035 214.213 348.207 239.675 C 341.379 265.137 350.27 291.108 368.937 307.3 C 353.581 331.45 333.371 351.689 310.014 367.033 Z" style="fill: rgb(226, 103, 31); visibility: hidden;">
    <title>Cog</title>
  </path>
  <g transform="matrix(0.824713, 0, 0, 0.824713, 38.56583, 30.502077)" style="">
    <title>Shades</title>
    <path d="M 70 79 L 186 71 L 184 190 Z" style="fill: rgb(237, 129, 41);"/>
    <path d="M 70 79 L 60 195 L 184 190 Z" style="fill: rgb(229, 123, 35);"/>
    <path d="M 186 71 L 188.238 42.155 C 191.533 37.019 194.102 31.295 195.766 25.086 C 195.897 24.596 196.022 24.108 196.141 23.619 C 211.557 23.663 227.222 25.682 242.817 29.86 C 258.413 34.038 272.987 40.122 286.359 47.792 C 286.222 48.26 286.09 48.731 285.964 49.204 C 284.363 55.178 283.713 61.182 283.921 67.057 Z" style="fill: rgb(242, 132, 47);"/>
    <path d="M 70 79 L 95.275 53.928 C 95.425 53.828 95.576 53.728 95.727 53.629 C 102.777 60.25 111.518 65.277 121.514 67.956 C 147.647 74.958 174.369 63.771 188.238 42.155 L 186 71 Z" style="fill: rgb(247, 149, 76);"/>
    <path d="M 70 79 L 64.892 79.167 C 65.72 78.311 66.557 77.464 67.401 76.625 Z" style="fill: rgb(233, 120, 37);"/>
    <path d="M 60 195 L 51.901 186.901 C 55.413 181.589 58.141 175.629 59.88 169.14 C 65.978 146.382 58.282 123.177 41.917 108.404 C 48.608 97.802 56.324 88.023 64.892 79.167 L 70 79 Z" style="fill: rgb(246, 153, 83);"/>
    <path d="M 60 195 L 45.484 195 C 47.834 192.506 49.984 189.8 51.901 186.901 Z" style="fill: rgb(241, 133, 51);"/>
    <path d="M 70 79 L 69.748 74.335 C 77.648 66.763 86.198 59.937 95.275 53.928 Z" style="fill: rgb(243, 144, 72);"/>
    <path d="M 186 71 L 283.921 67.057 C 284.325 78.512 287.991 89.473 294.23 98.75 L 184 190 Z" style="fill: rgb(234, 140, 69);"/>
    <path d="M 60 195 L 74.866 292.302 C 71.055 290.333 66.977 288.741 62.664 287.585 C 52.668 284.906 42.585 284.889 33.168 287.099 C 25.797 272.418 20.392 256.722 17.196 240.432 Z" style="fill: rgb(239, 133, 52);"/>
    <path d="M 184 190 L 98.726 314.567 C 93.056 305.272 84.891 297.483 74.866 292.302 L 60 195 Z" style="fill: rgb(242, 151, 81);"/>
    <path d="M 341 205 L 184 190 L 294.23 98.75 C 302.115 110.476 314.112 119.513 328.833 123.457 C 331.747 124.238 334.668 124.792 337.577 125.131 Z" style="fill: rgb(225, 127, 53);"/>
    <path d="M 184 190 L 191 338 L 107.166 338.769 C 106.103 330.126 103.187 321.88 98.726 314.567 Z" style="fill: rgb(224, 127, 53);"/>
    <path d="M 184 190 L 341 205 L 339.852 221.793 C 335.642 227.613 332.404 234.284 330.434 241.634 C 326.296 257.078 328.51 272.727 335.475 285.808 L 333 322 Z" style="fill: rgb(224, 136, 63);"/>
    <path d="M 60 195 L 17.196 240.432 C 15.418 231.367 14.324 222.119 13.955 212.758 C 26.011 210.178 37.039 203.96 45.484 195 Z" style="fill: rgb(237, 154, 90);"/>
    <path d="M 70 79 L 67.401 76.625 C 68.177 75.854 68.959 75.091 69.748 74.335 Z" style="fill: rgb(230, 112, 24);"/>
    <path d="M 191 338 L 333 322 L 184 190 Z" style="fill: rgb(237, 131, 43);"/>
    <path d="M 191 338 L 195.456 387.015 C 195.418 387.167 195.38 387.318 195.343 387.47 C 179.927 387.426 164.263 385.407 148.669 381.228 C 133.073 377.05 118.497 370.967 105.125 363.296 C 105.267 362.812 105.403 362.327 105.534 361.837 C 107.612 354.082 108.088 346.276 107.166 338.769 Z" style="fill: rgb(250, 170, 107);"/>
    <path d="M 333 322 L 332.729 325.253 C 321.852 337.68 309.378 348.503 295.721 357.483 C 288.676 350.873 279.944 345.855 269.96 343.179 C 249.604 337.725 228.89 343.307 214.172 356.257 L 191 338 Z" style="fill: rgb(217, 127, 62);"/>
    <path d="M 341 205 L 337.577 125.131 C 344.639 125.955 351.634 125.51 358.297 123.951 C 369.702 146.652 376.404 171.781 377.507 197.784 C 371.341 198.978 365.428 201.122 359.974 204.096 Z" style="fill: rgb(236, 142, 70);"/>
    <path d="M 341 205 L 359.974 204.096 C 355.785 206.381 351.866 209.156 348.31 212.368 Z" style="fill: rgb(242, 157, 94);"/>
    <path d="M 341 205 L 348.31 212.368 C 345.19 215.186 342.35 218.34 339.852 221.793 Z M 333 322 L 335.475 285.808 C 338.955 292.345 343.621 298.24 349.274 303.148 C 345.034 309.822 340.386 316.168 335.375 322.161 Z" style="fill: rgb(220, 133, 71);"/>
    <path d="M 191 338 L 214.172 356.257 C 205.505 363.882 198.918 374.063 195.706 386.049 C 195.62 386.371 195.537 386.693 195.456 387.015 Z" style="fill: rgb(244, 159, 95);"/>
    <path d="M 333 322 L 335.375 322.161 C 334.504 323.202 333.622 324.233 332.729 325.253 Z" style="fill: rgb(236, 163, 109);"/>
  </g>
  <title>power</title>
  <desc>Created with Sketch.</desc>
  <path d="M 159.035 217.742 L 158.272 217.742 C 146.297 217.742 141.652 209.487 147.844 199.303 L 204.64 105.894 C 217.579 84.614 221.723 86.513 213.896 110.136 L 196.484 162.688 C 192.725 174.033 199.389 183.116 211.321 183.116 L 244.783 183.116 L 244.641 183.254 L 245.404 183.254 C 257.38 183.254 262.024 191.51 255.832 201.694 L 201.443 291.144 C 187.188 314.587 182.617 312.48 191.262 286.386 L 207.193 238.309 C 210.951 226.964 204.288 217.881 192.354 217.881 L 158.894 217.881 L 159.035 217.742 Z" style="transform-box: fill-box; transform-origin: 50% 50%; visibility: hidden;" transform="matrix(0.965926, 0.258819, -0.258819, 0.965926, 0.000004, 0.000004)">
    <title>Flash</title>
  </path>
  <title>graduate</title>
  <title>bulb</title>
  <desc>Created with Sketch.</desc>
  <g id="flatten" stroke="none" stroke-width="1" fill="none" fill-rule="evenodd" transform="matrix(4.848191, -1.299069, 1.299069, 4.848191, 184.686401, 183.127075)" style="transform-origin: 16px 15.9894px;">
    <g id="z-copy" transform="translate(-4.000000, -4.000000)" fill="#000000">
      <g id="bulb" transform="translate(4.000000, 4.000000)">
        <path d="M8.04893656,20.9879868 C5.56555168,18.7894577 4,15.5775559 4,12 C4,5.372583 9.372583,0 16,0 C22.627417,0 28,5.372583 28,12 C28,15.5351969 26.4713018,18.7133471 24.0388879,20.9094684 C22.8714144,21.9635298 22.3935361,26.314352 21.2275404,29.0298342 C20.2686082,31.263087 18.8677424,32.0416197 16.0327148,31.9748535 C13.2665152,31.9097083 11.7263284,31.2123902 10.7692871,29.0864258 C9.55282281,26.3841811 9.23382169,22.0369601 8.04893656,20.9879868 L8.04893656,20.9879868 Z M6,12 C6,6.4771525 10.4771525,2 16,2 C21.5228475,2 26,6.4771525 26,12 C26,13.4039787 25.7097455,14.7600975 25.1685764,16 L6.83144854,16 C6.29038009,14.7602736 6,13.4041311 6,12 L6,12 Z M10.4462142,21 C10.1610402,20.3571063 9.8320342,19.8954144 9.37465546,19.4904991 C8.55828153,18.7677671 7.87243458,17.9262861 7.33680389,17 L7.33680389,17 L24.66319,17 C24.1437667,17.8981932 23.482983,18.7168207 22.6986172,19.4249906 C22.2402726,19.8388101 21.9047051,20.3213336 21.6043283,21 L10.4462142,21 L10.4462142,21 L10.4462142,21 Z M11.1018052,23 C11.1720882,23.2658547 11.2440709,23.5508756 11.3192464,23.8572605 C11.3437376,23.9570767 11.5960867,25.004759 11.7045027,25.4435106 L11.7045027,25.4435106 L20.8873043,23.1382947 C20.9002539,23.0916455 20.9131357,23.0455506 20.9259569,23 L11.1018052,23 L11.1018052,23 L11.1018052,23 Z M12.5749549,28.2249957 C12.3621958,27.7446626 12.1664961,27.1655223 11.9572719,26.4110846 L11.9572719,26.4110846 L20.5928403,24.2432441 C20.4835056,24.6645271 20.3300954,25.2573517 20.2770527,25.4580134 C20.1911713,25.7829042 20.1100328,26.0797864 20.0319804,26.353012 L12.5749542,28.2249958 L12.5749549,28.2249957 L12.5749549,28.2249957 Z M13.1241608,29.1181532 C13.6755154,29.7210257 14.4995511,29.9381923 16.0798027,29.9754079 C18.1496378,30.0241534 18.7757989,29.6706585 19.3897941,28.2407279 C19.4897734,28.0078865 19.586616,27.7549737 19.6843919,27.4712975 L13.1241608,29.1181532 L13.1241608,29.1181532 L13.1241608,29.1181532 Z M8.49999999,12.0473103 C8,12.0473103 8.02221433,11.3092774 8.06530214,10.9730396 C8.52717694,7.36877756 11.387523,4.51476445 14.9947964,4.06254437 C15.2453908,4.031129 16.0447247,4.00000003 16.0447247,4.50000001 C16.0447247,5 14.9166805,5.08331953 14.9166805,5.08331953 C11.918172,5.5491681 9.5491681,7.91817199 9.08331953,10.9166805 C9.08331953,10.9166805 8.99999997,12.0473103 8.49999999,12.0473103 L8.49999999,12.0473103 Z"/>
      </g>
    </g>
  </g>
</svg>