<?xml version="1.0" encoding="utf-8"?>
<svg viewBox="0 0 400 400" style="shape-rendering: crispedges;" width="400px" height="400px" xmlns="http://www.w3.org/2000/svg">
  <path d="M 312.076 299.696 C 305.053 295.934 297.025 293.8 288.5 293.8 C 260.886 293.8 238.5 316.186 238.5 343.8 C 238.5 344.204 238.505 344.607 238.514 345.01 C 226.224 348.265 213.315 350 200 350 C 186.685 350 173.775 348.265 161.485 345.009 C 161.495 344.594 161.5 344.178 161.5 343.76 C 161.5 316.146 139.114 293.76 111.5 293.76 C 102.965 293.76 94.929 295.899 87.899 299.669 C 73.882 283.915 63.136 265.187 56.726 244.549 C 72.916 236.273 84 219.431 84 200 C 84 180.569 72.916 163.727 56.726 155.451 C 63.136 134.814 73.883 116.085 87.9 100.331 C 94.929 104.101 102.965 106.24 111.5 106.24 C 139.114 106.24 161.5 83.854 161.5 56.24 C 161.5 55.822 161.495 55.406 161.485 54.991 C 173.775 51.735 186.685 50 200 50 C 213.315 50 226.224 51.735 238.514 54.991 C 238.505 55.393 238.5 55.796 238.5 56.2 C 238.5 83.814 260.886 106.2 288.5 106.2 C 297.025 106.2 305.052 104.066 312.076 100.304 C 326.007 115.954 336.71 134.541 343.139 155.02 C 326.48 163.131 315 180.225 315 200 C 315 219.775 326.48 236.869 343.139 244.98 C 336.71 265.459 326.007 284.046 312.076 299.696 Z" style="fill: rgb(226, 103, 31); visibility: hidden;">
    <title>Cog</title>
  </path>
  <path d="M 312.076 299.696 C 305.053 295.934 297.025 293.8 288.5 293.8 C 260.886 293.8 238.5 316.186 238.5 343.8 C 238.5 344.204 238.505 344.607 238.514 345.01 C 226.224 348.265 213.315 350 200 350 C 186.685 350 173.775 348.265 161.485 345.009 C 161.495 344.594 161.5 344.178 161.5 343.76 C 161.5 316.146 139.114 293.76 111.5 293.76 C 102.965 293.76 94.929 295.899 87.899 299.669 C 73.882 283.915 63.136 265.187 56.726 244.549 C 72.916 236.273 84 219.431 84 200 C 84 180.569 72.916 163.727 56.726 155.451 C 63.136 134.814 73.883 116.085 87.9 100.331 C 94.929 104.101 102.965 106.24 111.5 106.24 C 139.114 106.24 161.5 83.854 161.5 56.24 C 161.5 55.822 161.495 55.406 161.485 54.991 C 173.775 51.735 186.685 50 200 50 C 213.315 50 226.224 51.735 238.514 54.991 C 238.505 55.393 238.5 55.796 238.5 56.2 C 238.5 83.814 260.886 106.2 288.5 106.2 C 297.025 106.2 305.052 104.066 312.076 100.304 C 326.007 115.954 336.71 134.541 343.139 155.02 C 326.48 163.131 315 180.225 315 200 C 315 219.775 326.48 236.869 343.139 244.98 C 336.71 265.459 326.007 284.046 312.076 299.696 Z" style="fill: none; stroke: rgb(125, 125, 125); stroke-width: 16px;">
    <title>Cog</title>
  </path>
</svg>