<?xml version="1.0" encoding="utf-8"?>
<svg viewBox="0 0 800 800" xmlns="http://www.w3.org/2000/svg" xmlns:bx="https://boxy-svg.com">
  <defs>
    <bx:guide x="10" y="400" angle="90"/>
    <bx:guide x="400" y="10" angle="0"/>
    <bx:guide x="630" y="10" angle="0"/>
    <bx:guide x="170" y="10" angle="0"/>
    <style bx:fonts="Coda">@import url(https://fonts.googleapis.com/css2?family=Coda%3Aital%2Cwght%400%2C400%3B0%2C800&amp;display=swap);</style>
  </defs>
  <ellipse style="stroke: rgb(226, 103, 31); stroke-width: 24px; visibility: hidden;" cx="400" cy="400" rx="375.176" ry="375.176"/>
  <path style="stroke-linecap: round; fill: none; stroke: rgb(226, 103, 31); stroke-width: 17px; transform-box: fill-box; transform-origin: 50% 50%;" d="M 191.437 606.571 C 191.437 606.571 129.016 490.485 175.625 339.736" transform="matrix(0.999902, -0.013965, 0.013965, 0.999902, 0, 0)">
    <title>Wall</title>
  </path>
  <path style="fill: none; stroke: rgb(226, 103, 31); stroke-width: 17px; stroke-linecap: round; stroke-linejoin: round;" d="M 126.955 309.357 C 126.955 309.357 258.462 259.275 356.486 154.016 C 485.367 269.382 674.056 282.717 674.056 282.717">
    <title>Roof</title>
  </path>
  <text style="fill: rgb(125, 125, 123); font-family: Coda; font-size: 187.3px; white-space: pre; visibility: hidden;" x="556.915" y="334.349">2</text>
  <g id="g-1" transform="matrix(-2.323375, 0, 0, 2.323375, -453.519165, 291.615295)" style="transform-origin: 885.345px 157.604px;">
    <title>Cog</title>
    <path d="M 884.87 165.892 L 871.682 165.892 L 871.682 179.08 L 884.87 179.08 L 884.87 165.892" style="fill-opacity: 1; fill-rule: nonzero; stroke: none; fill: rgb(226, 103, 31);" id="path206"/>
    <path d="M 884.788 135.735 L 873.697 135.735 L 873.697 146.826 L 884.788 146.826 L 884.788 135.735" style="fill-opacity: 1; fill-rule: nonzero; stroke: none; fill: rgb(226, 103, 31);" id="path208"/>
    <path d="M 895.578 152.302 L 886.98 152.302 L 886.98 160.9 L 895.578 160.9 L 895.578 152.302" style="fill-opacity: 1; fill-rule: nonzero; stroke: none; fill: rgb(226, 103, 31);" id="path210"/>
    <path d="M 819.554 169.017 L 802.335 169.017 L 802.335 186.236 L 819.554 186.236 L 819.554 169.017" style="fill-opacity: 1; fill-rule: nonzero; stroke: none; fill: rgb(226, 103, 31);" id="path212"/>
    <path d="M 836.453 149.53 L 819.885 149.53 L 819.885 165.887 L 836.453 165.887 L 836.453 149.53" style="fill-opacity: 1; fill-rule: nonzero; stroke: none; fill: rgb(226, 103, 31);" id="path214"/>
    <path d="M 818.491 134.276 L 806.388 134.276 L 806.388 146.38 L 818.491 146.38 L 818.491 134.276" style="fill-opacity: 1; fill-rule: nonzero; stroke: none; fill: rgb(226, 103, 31);" id="path216"/>
    <path d="M 800.508 150.549 L 788.404 150.549 L 788.404 162.653 L 800.508 162.653 L 800.508 150.549" style="fill-opacity: 1; fill-rule: nonzero; stroke: none; fill: rgb(226, 103, 31);" id="path218"/>
    <path d="M 919.427 117.482 C 897.084 108.368 871.492 119.131 862.378 141.474 C 861.335 144.03 860.565 146.629 860.031 149.241 L 869.49 149.241 L 869.49 165.892 L 859.879 165.892 C 862.503 180.074 872.053 192.683 886.37 198.523 C 908.714 207.637 934.305 196.874 943.419 174.531 C 952.533 152.187 941.77 126.596 919.427 117.482 Z M 859.394 123.444 L 846.283 123.444 L 846.283 136.554 L 859.394 136.554 L 859.394 123.444 Z M 980.92 138.443 L 971.978 147.658 C 972.993 154.355 973.039 161.242 972.034 168.116 L 980.639 177.669 C 981.882 179.049 982.227 181.018 981.525 182.737 L 976.221 195.741 C 975.488 197.539 973.752 198.724 971.811 198.753 L 959.519 198.938 C 955.268 204.817 950.195 209.917 944.511 214.117 L 943.876 226.292 C 943.779 228.146 942.63 229.782 940.919 230.502 L 927.972 235.947 C 926.183 236.699 924.117 236.31 922.724 234.958 L 914.415 226.895 C 907.1 228.131 899.541 228.201 892.008 227.013 L 883.499 234.678 C 882.119 235.921 880.15 236.265 878.431 235.564 L 865.426 230.259 C 863.629 229.526 862.444 227.79 862.414 225.849 L 862.249 214.824 C 855.868 210.26 850.411 204.719 845.996 198.495 L 834.876 197.915 C 833.022 197.818 831.386 196.669 830.666 194.957 L 828.233 189.172 L 836.483 189.172 L 836.483 165.892 L 852.839 165.892 L 852.839 149.536 L 836.534 149.536 L 836.534 129.999 L 826.612 129.999 L 830.909 119.465 C 831.642 117.668 833.378 116.482 835.318 116.453 L 846.835 116.28 C 851.302 110.279 856.66 105.142 862.625 100.946 L 863.253 88.915 C 863.35 87.06 864.499 85.424 866.211 84.704 L 879.157 79.26 C 880.946 78.51 883.012 78.9 884.405 80.25 L 893.247 88.828 C 900.102 87.86 907.147 87.905 914.167 89.053 L 923.63 80.53 C 925.01 79.29 926.979 78.94 928.699 79.64 L 941.703 84.947 C 943.5 85.68 944.686 87.416 944.715 89.357 L 944.907 102.163 C 950.41 106.304 955.192 111.186 959.167 116.609 L 972.253 117.291 C 974.108 117.388 975.744 118.537 976.464 120.249 L 981.908 133.195 C 982.66 134.985 982.271 137.05 980.92 138.443" style="fill-opacity: 1; fill-rule: nonzero; stroke: none; fill: rgb(125, 125, 123);" id="path220"/>
  </g>
  <path d="M 644.437 333.526 L 565.512 333.526 Q 565.603 319.259 567.387 310.616 Q 569.17 301.974 573.377 296.029 Q 577.584 290.085 585.632 284.415 Q 591.028 280.665 597.475 276.732 Q 603.923 272.8 607.581 270.651 Q 611.239 268.501 615.355 265.575 Q 619.47 262.648 621.619 260.087 Q 623.769 257.527 625.689 253.777 Q 627.61 250.027 628.341 245.226 Q 629.073 240.425 629.073 233.931 Q 629.073 229.999 629.027 227.85 Q 628.982 225.7 628.661 222.82 Q 628.341 219.939 627.747 218.475 Q 627.152 217.012 626.101 215.183 Q 625.049 213.354 623.449 212.485 Q 621.848 211.616 619.562 210.747 Q 617.275 209.879 614.166 209.559 Q 611.056 209.238 607.032 209.238 Q 599.442 209.238 595.097 209.924 Q 590.753 210.61 587.415 212.988 Q 584.077 215.366 582.568 219.71 Q 581.059 224.054 580.419 231.462 L 566.884 228.261 Q 566.792 227.438 566.792 225.792 Q 566.792 210.153 576.578 203.34 Q 586.364 196.526 605.661 196.526 Q 613.16 196.526 618.556 197.121 Q 623.952 197.715 628.707 199.27 Q 633.463 200.825 636.572 203.523 Q 639.682 206.22 641.922 210.382 Q 644.163 214.543 645.123 220.35 Q 646.084 226.158 646.084 233.931 Q 646.084 246.552 643.02 255.103 Q 639.956 263.654 634.286 269.142 Q 628.616 274.629 618.647 280.025 Q 616.269 281.397 612.382 283.591 Q 608.496 285.786 606.438 286.975 Q 604.38 288.164 601.225 290.085 Q 598.07 292.005 596.424 293.286 Q 594.777 294.566 592.4 296.578 Q 590.022 298.59 588.787 300.282 Q 587.552 301.974 586.089 304.352 Q 584.626 306.73 583.894 309.153 Q 583.163 311.577 582.66 314.595 Q 582.157 317.613 582.065 320.997 L 644.437 320.997 Z" style="fill: rgb(125, 125, 123); visibility: hidden;"/>
</svg>