<?xml version="1.0" encoding="utf-8"?>
<svg viewBox="0 0 2300 700" lang="de" style="filter: none; shape-rendering: geometricprecision;" xmlns="http://www.w3.org/2000/svg" xmlns:bx="https://boxy-svg.com">
  <desc>v1.0</desc>
  <defs>
    <bx:guide x="123.788" y="560.576" angle="0"/>
    <bx:guide x="682.832" y="512.734" angle="90"/>
  </defs>
  <title>haus-automatisierung.com</title>
  <rect width="2300" height="700" style="fill: rgb(28, 28, 28); visibility: hidden;">
    <title>Background</title>
  </rect>
  <g transform="matrix(0.770021, 0, 0, 0.770021, 92.034828, 43.416828)" style="">
    <title>Logo</title>
    <g style="transform-origin: 640.11px 345.058px;" transform="matrix(0.698303, 0, 0, 0.698303, -224.915329, 100.53698)">
      <title>Gear</title>
      <path d="M 724.125 419.847 L 680.152 419.847 L 680.152 375.874 L 724.125 375.874 L 724.125 419.847" style="fill-opacity: 1; fill-rule: nonzero; stroke: none; fill: rgb(226, 103, 31); transform-box: fill-box; transform-origin: 50% 50%;" id="path120" transform="matrix(-1, 0, 0, -1, 0.000043, 0.000061)"/>
      <path d="M 717.404 312.301 L 680.425 312.301 L 680.425 275.321 L 717.404 275.321 L 717.404 312.301" style="fill-opacity: 1; fill-rule: nonzero; stroke: none; fill: rgb(226, 103, 31); transform-box: fill-box; transform-origin: 50% 50%;" id="path122" transform="matrix(-1, 0, 0, -1, -0.000026, 0.000033)"/>
      <path d="M 673.115 359.228 L 644.448 359.228 L 644.448 330.561 L 673.115 330.561 L 673.115 359.228" style="fill-opacity: 1; fill-rule: nonzero; stroke: none; fill: rgb(226, 103, 31); transform-box: fill-box; transform-origin: 50% 50%;" id="path124" transform="matrix(-1, 0, 0, -1, -0.000029, -0.000011)"/>
      <path d="M 896.832 375.857 L 841.589 375.857 L 841.589 321.318 L 896.832 321.318 L 896.832 375.857" style="fill-opacity: 1; fill-rule: nonzero; stroke: none; fill: rgb(226, 103, 31); transform-box: fill-box; transform-origin: 50% 50%;" id="path128" transform="matrix(-1, 0, 0, -1, 0.000037, 0.00004)"/>
      <path d="M 664.809 482.013 C 590.309 512.401 504.977 476.516 474.589 402.016 C 471.112 393.493 468.545 384.825 466.761 376.117 L 498.301 376.117 L 498.301 320.597 L 466.255 320.597 C 475.005 273.311 506.848 231.27 554.587 211.796 C 629.086 181.408 714.417 217.294 744.806 291.793 C 775.194 366.293 739.309 451.624 664.809 482.013 Z M 464.637 462.134 L 420.924 462.134 L 420.924 418.421 L 464.637 418.421 L 464.637 462.134 Z M 869.844 412.12 L 840.031 381.397 C 843.412 359.068 843.568 336.101 840.216 313.181 L 868.91 281.331 C 873.054 276.729 874.2 270.164 871.863 264.431 L 854.176 221.071 C 851.731 215.078 845.944 211.126 839.472 211.028 L 798.486 210.411 C 784.314 190.811 767.397 173.806 748.447 159.802 L 746.33 119.206 C 746.007 113.023 742.175 107.568 736.467 105.169 L 693.301 87.014 C 687.336 84.506 680.448 85.802 675.802 90.31 L 648.098 117.194 C 623.706 113.075 598.502 112.839 573.385 116.803 L 545.013 91.245 C 540.412 87.101 533.847 85.953 528.113 88.291 L 484.753 105.978 C 478.76 108.422 474.807 114.21 474.709 120.68 L 474.157 157.443 C 452.884 172.662 434.686 191.136 419.968 211.89 L 382.888 213.824 C 376.706 214.147 371.251 217.978 368.851 223.686 L 360.739 242.975 L 388.246 242.975 L 388.246 320.597 L 442.781 320.597 L 442.781 375.133 L 388.418 375.133 L 388.418 440.277 L 355.334 440.277 L 369.66 475.401 C 372.104 481.393 377.892 485.346 384.363 485.444 L 422.764 486.021 C 437.657 506.029 455.524 523.157 475.413 537.149 L 477.507 577.265 C 477.829 583.449 481.66 588.902 487.368 591.303 L 530.535 609.457 C 536.501 611.966 543.388 610.669 548.033 606.162 L 577.516 577.553 C 600.373 580.781 623.864 580.63 647.269 576.803 L 678.822 605.227 C 683.424 609.371 689.989 610.518 695.724 608.179 L 739.082 590.494 C 745.075 588.049 749.029 582.261 749.126 575.79 L 749.767 533.091 C 768.114 519.283 784.059 503.005 797.314 484.924 L 840.947 482.648 C 847.131 482.325 852.586 478.493 854.986 472.785 L 873.139 429.618 C 875.648 423.653 874.351 416.765 869.844 412.12" style="fill-opacity: 1; fill-rule: nonzero; stroke: none; transform-box: fill-box; transform-origin: 50% 50%; fill: rgb(125, 125, 125);" id="path134" transform="matrix(-1, 0, 0, -1, -0.000061, 0.000053)">
        <title>Gear</title>
      </path>
      <path d="M 724.405 412.101 L 694.592 381.378 C 697.975 359.049 698.129 336.082 694.777 313.162 L 723.471 281.312 C 727.615 276.712 728.763 270.145 726.424 264.412 L 708.737 221.052 C 706.292 215.059 700.505 211.107 694.033 211.009 L 653.047 210.392 C 638.875 190.792 621.958 173.787 603.008 159.783 L 600.891 119.188 C 600.568 113.004 596.736 107.549 591.028 105.15 L 547.862 86.995 C 543.757 85.268 539.229 85.384 535.281 87.07 C 559.115 136.305 572.639 191.455 573.094 249.718 C 583.914 261.814 592.895 275.909 599.367 291.774 C 629.755 366.274 593.868 451.605 519.37 481.994 C 509.621 485.97 499.685 488.785 489.711 490.553 C 453.755 535.444 407.854 572.015 355.334 596.922 L 385.096 609.438 C 391.062 611.947 397.949 610.65 402.594 606.143 L 432.077 577.534 C 454.934 580.762 478.425 580.611 501.831 576.784 L 533.383 605.208 C 537.985 609.352 544.55 610.5 550.285 608.16 L 593.643 590.475 C 599.636 588.03 603.59 582.242 603.687 575.771 L 604.328 533.072 C 622.675 519.264 638.62 502.986 651.875 484.905 L 695.508 482.629 C 701.692 482.306 707.147 478.474 709.547 472.766 L 727.7 429.599 C 730.209 423.634 728.912 416.746 724.405 412.101" style="fill-opacity: 1; fill-rule: nonzero; stroke: none; transform-box: fill-box; transform-origin: 50% 50%; fill: rgb(101, 101, 101);" id="path136" transform="matrix(-1, 0, 0, -1, 0.000011, -0.000014)">
        <title>GearShadow</title>
      </path>
      <path d="M 965.165 296.375 L 924.806 296.375 L 924.806 256.016 L 965.165 256.016 L 965.165 296.375" style="fill-opacity: 1; fill-rule: nonzero; stroke: none; transform-box: fill-box; transform-origin: 50% 50%; fill: rgb(125, 125, 125);" id="path130" transform="matrix(-1, 0, 0, -1, 0.000021, -0.000003)"/>
      <path d="M 1013.953 365.072 L 973.594 365.072 L 973.594 324.715 L 1013.953 324.715 L 1013.953 365.072" style="fill-opacity: 1; fill-rule: nonzero; stroke: none; fill: rgb(125, 125, 123); transform-box: fill-box; transform-origin: 50% 50%;" id="path132" transform="matrix(-1, 0, 0, -1, 0.000052, -0.000004)"/>
      <path d="M 947.475 453.571 L 890.062 453.571 L 890.062 396.159 L 947.475 396.159 L 947.475 453.571" style="fill-opacity: 1; fill-rule: nonzero; stroke: none; transform-box: fill-box; transform-origin: 50% 50%; fill: rgb(125, 125, 125);" id="path126" transform="matrix(-1, 0, 0, -1, -0.000022, 0)"/>
      <path d="M 1013.953 365.58 L 973.594 365.58 L 973.594 325.223 L 1013.953 325.223 L 1013.953 365.58" style="fill-opacity: 1; fill-rule: nonzero; stroke: none; transform-origin: 993.773px 345.401px; fill: rgb(125, 125, 125);" id="path-1" transform="matrix(-1, 0, 0, -1, -0.000082, 0.000036)"/>
    </g>
    <path style="fill: none; stroke-width: 7px; stroke-linecap: round; stroke-linejoin: round; stroke: rgb(101, 101, 101); visibility: hidden;" d="M 460.53 147.572 L 635.569 295.066">
      <title>PV</title>
    </path>
    <path class="fil1" d="M 123.77 344.607 C 123.77 341.735 124.864 338.792 127.122 336.602 L 392.317 115.126 C 394.472 113.07 397.238 112.043 400 112.028 C 402.762 112.043 405.528 113.07 407.683 115.126 L 672.878 336.602 C 675.136 338.792 676.23 341.735 676.23 344.607 L 676.299 344.607 L 676.299 425.972 L 653.788 425.972 L 653.788 349.397 L 399.079 140.812 L 146.212 349.397 L 146.212 425.972 L 123.701 425.972 L 123.701 344.607 L 123.77 344.607 Z M 653.788 586.626 L 653.788 465.807 L 676.299 465.807 L 676.299 597.849 C 676.299 604.075 671.304 609.07 665.077 609.07 L 508.343 609.07 L 508.343 586.626 L 653.788 586.626 Z M 146.212 465.807 L 146.212 586.626 L 291.657 586.626 L 291.657 609.07 L 134.923 609.07 C 128.696 609.07 123.701 604.075 123.701 597.849 L 123.701 465.807 L 146.212 465.807 Z" style="fill-rule: nonzero; fill: rgb(226, 103, 31);">
      <title>House</title>
    </path>
    <path d="M 151.772 459.925 L 123.589 459.925 L 123.589 431.743 L 151.772 431.743 L 151.772 459.925" style="fill-opacity: 1; fill-rule: nonzero; stroke: none; transform-box: fill-box; transform-origin: 50% 50%; fill: rgb(125, 125, 125);" id="path-2" transform="matrix(-1, 0, 0, -1, -0.00001, -0.000019)">
      <title>Left Brick</title>
    </path>
  </g>
  <g transform="matrix(2.487715, 0, 0, 2.487715, 382.356873, -1129.835449)" style="">
    <title>Text</title>
    <path d="M 133.149 659.94 L 125.482 659.94 L 125.482 600.657 L 133.149 600.657 L 133.149 624.355 L 133.554 624.355 C 135.094 622.717 136.873 621.482 138.891 620.65 C 140.638 619.938 142.493 619.527 144.377 619.434 C 144.743 619.414 145.109 619.404 145.476 619.404 C 146.755 619.396 148.029 619.543 149.273 619.844 C 150.212 620.073 151.122 620.406 151.988 620.834 C 153.907 621.788 155.423 623.329 156.536 625.456 C 157.005 626.373 157.364 627.342 157.601 628.343 C 158.004 629.969 158.205 631.856 158.205 634.003 L 158.205 659.94 L 150.538 659.94 L 150.538 634.443 C 150.542 633.7 150.496 632.955 150.402 632.216 C 150.182 630.575 149.694 629.312 148.94 628.428 C 148.799 628.264 148.647 628.111 148.484 627.97 C 147.114 626.783 145.292 626.19 143.017 626.19 C 142.147 626.192 141.279 626.28 140.425 626.449 C 140.126 626.506 139.828 626.573 139.533 626.648 C 138.335 626.954 137.179 627.45 136.066 628.134 C 135.039 628.772 134.132 629.585 133.387 630.538 C 133.307 630.641 133.227 630.743 133.149 630.848 Z M 181.133 637.488 L 189.461 636.665 L 189.461 634.114 C 189.461 632.662 189.314 631.418 189.018 630.383 C 188.873 629.856 188.663 629.347 188.397 628.868 C 187.754 627.737 186.745 626.86 185.536 626.381 C 185.402 626.326 185.268 626.274 185.133 626.227 C 184.028 625.84 182.696 625.598 181.134 625.504 C 180.597 625.471 180.058 625.455 179.519 625.456 C 178.104 625.456 176.518 625.574 174.761 625.807 C 174.635 625.825 174.509 625.842 174.383 625.86 C 172.475 626.129 170.592 626.57 168.734 627.18 L 168.734 621.164 C 169.887 620.789 171.06 620.482 172.249 620.244 C 173.042 620.085 173.84 619.952 174.641 619.844 C 175.866 619.675 177.097 619.552 178.332 619.476 C 179.118 619.428 179.905 619.405 180.693 619.404 C 181.964 619.399 183.232 619.465 184.495 619.598 C 185.748 619.735 186.905 619.945 187.966 620.227 C 188.579 620.39 189.182 620.586 189.773 620.815 C 192.182 621.757 193.979 623.329 195.166 625.529 C 195.636 626.422 196 627.368 196.25 628.346 C 196.503 629.305 196.687 630.359 196.802 631.507 C 196.901 632.52 196.948 633.537 196.944 634.554 L 196.944 659.94 L 190.598 659.94 L 190.047 655.647 L 189.607 655.647 C 188.337 657.287 186.715 658.522 184.747 659.353 C 182.779 660.184 180.657 660.6 178.382 660.6 C 177.151 660.609 175.922 660.493 174.714 660.254 C 173.224 659.947 171.907 659.437 170.76 658.726 C 170.241 658.404 169.755 658.037 169.303 657.629 C 167.589 656.073 166.48 653.96 166.176 651.664 C 166.069 650.955 166.017 650.239 166.019 649.522 C 166.008 648.295 166.174 647.07 166.515 645.893 C 167.055 644.051 168.134 642.414 169.614 641.193 C 170.561 640.423 171.617 639.796 172.748 639.335 C 174.949 638.402 177.745 637.787 181.133 637.488 Z M 181.794 642.184 C 178.909 642.478 176.835 643.169 175.577 644.257 C 174.614 645.091 173.981 646.242 173.794 647.501 C 173.72 647.937 173.685 648.38 173.687 648.824 C 173.681 649.444 173.748 650.062 173.883 650.666 C 174.093 651.566 174.472 652.334 175.018 652.968 C 175.147 653.117 175.284 653.258 175.429 653.392 C 176.591 654.456 178.296 654.987 180.547 654.987 C 181.948 654.981 183.337 654.735 184.656 654.257 C 184.853 654.186 185.048 654.112 185.243 654.033 C 186.349 653.577 187.366 652.927 188.245 652.116 C 188.678 651.719 189.086 651.293 189.461 650.841 L 189.461 641.407 Z M 206.52 646.073 L 206.52 620.027 L 214.187 620.027 L 214.187 645.633 C 214.183 646.372 214.228 647.111 214.322 647.845 C 214.542 649.482 215.026 650.746 215.778 651.634 C 215.915 651.796 216.064 651.949 216.223 652.089 C 217.171 652.916 218.322 653.473 219.559 653.703 C 220.206 653.829 220.865 653.89 221.525 653.887 C 222.6 653.887 223.725 653.728 224.899 653.41 C 226.006 653.106 227.066 652.653 228.053 652.063 C 228.139 652.011 228.224 651.96 228.311 651.906 C 229.294 651.289 230.174 650.521 230.919 649.631 C 231.031 649.499 231.139 649.364 231.246 649.228 L 231.246 620.027 L 238.876 620.027 L 238.876 659.94 L 232.493 659.94 L 231.98 655.685 L 231.575 655.685 C 229.961 657.322 228.128 658.552 226.073 659.372 C 224.018 660.191 221.854 660.6 219.579 660.6 C 218.344 660.607 217.111 660.481 215.902 660.225 C 214.848 659.998 213.823 659.651 212.848 659.188 C 211.17 658.38 209.756 657.114 208.765 655.538 C 208.565 655.228 208.38 654.909 208.207 654.584 C 207.725 653.651 207.358 652.662 207.115 651.639 C 206.718 650.034 206.52 648.178 206.52 646.073 Z M 247.827 659.024 L 247.827 653.117 C 249.492 653.598 251.183 653.983 252.892 654.27 C 253.129 654.31 253.368 654.347 253.605 654.383 C 255.5 654.663 257.426 654.804 259.382 654.804 C 260.172 654.808 260.96 654.771 261.745 654.695 C 263.337 654.536 264.622 654.201 265.602 653.692 C 265.845 653.567 266.077 653.425 266.298 653.263 C 267.476 652.434 268.231 651.129 268.365 649.694 C 268.393 649.441 268.408 649.188 268.407 648.935 C 268.411 648.468 268.369 648.003 268.283 647.545 C 268.108 646.643 267.745 645.914 267.197 645.358 C 266.889 645.053 266.54 644.793 266.161 644.585 C 265.372 644.138 264.336 643.779 263.051 643.505 L 257.328 642.367 C 255.015 641.893 253.112 641.209 251.619 640.317 C 250.785 639.83 250.031 639.217 249.386 638.498 C 248.317 637.267 247.587 635.776 247.268 634.176 C 247.073 633.238 246.978 632.283 246.983 631.325 C 246.957 629.577 247.358 627.849 248.149 626.291 C 248.878 624.914 249.887 623.705 251.11 622.742 C 253.849 620.526 258.036 619.414 263.67 619.404 C 263.697 619.404 263.722 619.404 263.749 619.404 C 265.51 619.404 267.221 619.507 268.884 619.714 C 269.959 619.848 271.029 620.028 272.087 620.257 C 272.575 620.363 273.061 620.484 273.544 620.614 L 273.544 626.52 C 271.953 626.08 270.377 625.762 268.811 625.567 C 267.401 625.392 265.983 625.295 264.562 625.278 C 264.353 625.275 264.142 625.273 263.931 625.273 C 263.217 625.271 262.504 625.296 261.792 625.35 C 260.382 625.459 259.201 625.684 258.251 626.025 C 258.219 626.037 258.186 626.049 258.154 626.061 C 257.712 626.224 257.284 626.421 256.874 626.651 C 256.438 626.898 256.062 627.173 255.745 627.472 C 255.52 627.683 255.32 627.917 255.145 628.171 C 254.546 629.051 254.247 630.041 254.247 631.142 C 254.242 631.675 254.312 632.206 254.452 632.719 C 254.633 633.371 254.958 633.972 255.403 634.481 C 256.172 635.361 257.525 636.021 259.457 636.462 L 265.179 637.562 C 266.234 637.769 267.272 638.046 268.289 638.393 C 269.318 638.748 270.234 639.162 271.036 639.636 C 271.816 640.085 272.53 640.641 273.158 641.285 C 274.833 643.034 275.672 645.473 275.672 648.604 C 275.687 650.017 275.455 651.42 274.983 652.75 C 274.295 654.61 273.089 656.232 271.508 657.427 C 269.409 659.064 266.594 660.081 263.061 660.481 C 261.852 660.614 260.636 660.678 259.419 660.674 C 257.591 660.678 255.763 660.561 253.949 660.328 C 253.766 660.303 253.585 660.278 253.402 660.252 C 251.471 659.971 249.613 659.56 247.827 659.024 Z" vector-effect="non-scaling-stroke" style="fill: rgb(125, 125, 125);">
      <title>haus</title>
    </path>
    <path d="M 315.11 637.725 L 323.351 636.909 L 323.351 634.385 C 323.351 632.947 323.206 631.716 322.913 630.693 C 322.768 630.17 322.562 629.666 322.299 629.192 C 321.661 628.074 320.662 627.205 319.465 626.73 C 319.334 626.676 319.202 626.625 319.067 626.578 C 317.973 626.195 316.655 625.956 315.11 625.863 C 314.577 625.831 314.044 625.814 313.511 625.815 C 312.11 625.815 310.54 625.932 308.8 626.163 C 308.676 626.181 308.551 626.197 308.428 626.215 C 306.54 626.482 304.674 626.918 302.836 627.522 L 302.836 621.567 C 303.977 621.195 305.139 620.892 306.314 620.656 C 307.098 620.5 307.888 620.367 308.681 620.26 C 309.895 620.093 311.113 619.971 312.336 619.896 C 313.113 619.848 313.893 619.826 314.673 619.825 C 315.929 619.82 317.187 619.885 318.436 620.017 C 319.675 620.152 320.819 620.36 321.871 620.639 C 322.477 620.801 323.075 620.995 323.661 621.222 C 326.043 622.154 327.823 623.71 328.997 625.887 C 329.464 626.771 329.823 627.707 330.071 628.675 C 330.321 629.625 330.503 630.669 330.617 631.804 C 330.713 632.807 330.762 633.814 330.759 634.82 L 330.759 659.947 L 324.476 659.947 L 323.933 655.698 L 323.497 655.698 C 322.238 657.322 320.634 658.545 318.685 659.366 C 316.736 660.19 314.637 660.602 312.385 660.602 C 311.167 660.61 309.949 660.495 308.754 660.258 C 307.28 659.955 305.975 659.451 304.841 658.746 C 304.328 658.427 303.845 658.064 303.399 657.66 C 301.836 656.242 300.783 654.357 300.391 652.294 C 300.478 652.535 300.138 648.599 300.149 649.636 C 300.136 648.421 300.302 647.21 300.638 646.044 C 301.173 644.221 302.241 642.601 303.707 641.392 C 304.643 640.629 305.689 640.01 306.808 639.552 C 308.987 638.63 311.753 638.02 315.11 637.725 Z M 315.762 642.373 C 312.906 642.663 310.855 643.348 309.608 644.424 C 308.656 645.25 308.03 646.389 307.844 647.635 C 307.771 648.067 307.735 648.505 307.737 648.946 C 307.732 649.558 307.797 650.17 307.933 650.769 C 308.14 651.659 308.514 652.419 309.055 653.048 C 309.183 653.195 309.319 653.335 309.462 653.466 C 310.611 654.519 312.301 655.046 314.528 655.046 C 315.915 655.039 317.29 654.796 318.594 654.323 C 318.789 654.252 318.984 654.179 319.176 654.102 C 320.271 653.65 321.277 653.007 322.148 652.204 C 322.578 651.811 322.98 651.39 323.351 650.942 L 323.351 641.604 L 315.762 642.373 Z M 527.711 637.725 L 535.953 636.909 L 535.953 634.385 C 535.953 632.947 535.807 631.716 535.513 630.693 C 535.37 630.17 535.164 629.666 534.9 629.192 C 534.263 628.074 533.265 627.205 532.067 626.73 C 531.935 626.676 531.803 626.625 531.669 626.578 C 530.575 626.195 529.257 625.956 527.711 625.863 C 527.178 625.831 526.646 625.814 526.113 625.815 C 524.713 625.815 523.142 625.932 521.403 626.163 C 521.279 626.181 521.153 626.197 521.029 626.215 C 519.141 626.482 517.276 626.918 515.437 627.522 L 515.437 621.567 C 516.578 621.195 517.741 620.892 518.916 620.656 C 519.701 620.5 520.491 620.367 521.284 620.26 C 522.497 620.093 523.715 619.971 524.937 619.896 C 525.715 619.848 526.494 619.826 527.274 619.825 C 528.532 619.82 529.787 619.885 531.038 620.017 C 532.277 620.152 533.422 620.36 534.473 620.639 C 535.08 620.801 535.677 620.995 536.262 621.222 C 538.646 622.154 540.425 623.71 541.6 625.887 C 542.065 626.771 542.425 627.707 542.673 628.675 C 542.923 629.625 543.105 630.669 543.219 631.804 C 543.316 632.807 543.364 633.814 543.36 634.82 L 543.36 659.947 L 537.078 659.947 L 536.534 655.698 L 536.098 655.698 C 534.84 657.322 533.236 658.545 531.287 659.366 C 529.338 660.19 527.239 660.602 524.987 660.602 C 523.768 660.61 522.552 660.495 521.356 660.258 C 519.88 659.955 518.577 659.451 517.443 658.746 C 516.929 658.427 516.447 658.064 516 657.66 C 514.304 656.12 513.207 654.029 512.906 651.757 C 512.8 651.055 512.748 650.346 512.75 649.636 C 512.739 648.421 512.903 647.21 513.241 646.044 C 513.775 644.221 514.843 642.601 516.309 641.392 C 517.246 640.629 518.291 640.01 519.41 639.552 C 521.589 638.63 524.356 638.02 527.711 637.725 Z M 528.364 642.373 C 525.509 642.663 523.456 643.348 522.209 644.424 C 521.257 645.25 520.632 646.389 520.446 647.635 C 520.372 648.067 520.338 648.505 520.34 648.946 C 520.334 649.558 520.4 650.17 520.534 650.769 C 520.742 651.659 521.116 652.419 521.657 653.048 C 521.785 653.195 521.92 653.335 522.064 653.466 C 523.214 654.519 524.902 655.046 527.13 655.046 C 528.517 655.039 529.892 654.796 531.197 654.323 C 531.392 654.252 531.585 654.179 531.777 654.102 C 532.873 653.65 533.879 653.007 534.749 652.204 C 535.179 651.811 535.582 651.39 535.953 650.942 L 535.953 641.604 L 528.364 642.373 Z M 648.518 659.947 L 640.929 659.947 L 640.929 620.441 L 647.247 620.441 L 647.791 624.763 L 648.227 624.763 C 649.776 623.164 651.598 621.942 653.692 621.095 C 655.785 620.248 658.007 619.825 660.356 619.825 C 662.874 619.825 665.105 620.296 667.054 621.24 C 668.712 622.051 670.111 623.308 671.088 624.872 C 671.288 625.184 671.476 625.505 671.648 625.834 C 672.125 626.76 672.488 627.742 672.727 628.758 C 673.122 630.359 673.319 632.21 673.319 634.312 L 673.319 659.947 L 665.73 659.947 L 665.73 634.711 C 665.73 631.613 665.064 629.463 663.732 628.266 C 662.92 627.547 661.946 627.036 660.893 626.778 C 660.209 626.598 659.46 626.498 658.649 626.474 C 658.528 626.47 658.407 626.468 658.285 626.468 C 657.22 626.468 656.095 626.627 654.908 626.941 C 653.771 627.246 652.681 627.704 651.668 628.305 C 651.598 628.346 651.529 628.387 651.459 628.43 C 650.439 629.057 649.531 629.852 648.78 630.784 C 648.69 630.895 648.603 631.003 648.518 631.116 L 648.518 659.947 Z M 340.236 646.222 L 340.236 620.441 L 347.825 620.441 L 347.825 645.786 C 347.821 646.519 347.866 647.25 347.958 647.976 C 348.175 649.596 348.657 650.847 349.401 651.727 C 349.536 651.887 349.683 652.038 349.839 652.176 C 350.778 652.996 351.917 653.546 353.141 653.774 C 353.783 653.899 354.434 653.959 355.087 653.957 C 356.152 653.957 357.266 653.8 358.428 653.485 C 359.523 653.183 360.575 652.735 361.549 652.152 C 361.634 652.099 361.72 652.049 361.805 651.995 C 362.778 651.385 363.649 650.624 364.387 649.744 C 364.496 649.613 364.605 649.479 364.709 649.345 L 364.709 620.441 L 372.262 620.441 L 372.262 659.947 L 365.945 659.947 L 365.436 655.736 L 365.037 655.736 C 363.438 657.357 361.623 658.574 359.59 659.385 C 357.557 660.197 355.414 660.602 353.163 660.602 C 351.94 660.609 350.72 660.484 349.523 660.23 C 348.478 660.006 347.464 659.661 346.5 659.203 C 344.84 658.403 343.439 657.151 342.458 655.591 C 342.261 655.283 342.076 654.969 341.907 654.646 C 341.428 653.723 341.065 652.744 340.825 651.732 C 340.432 650.143 340.236 648.306 340.236 646.222 Z M 459.664 659.947 L 452.075 659.947 L 452.075 620.441 L 458.393 620.441 L 458.937 624.797 L 459.373 624.797 C 460.849 623.152 462.55 621.912 464.474 621.076 C 466.4 620.241 468.464 619.825 470.665 619.825 C 471.838 619.817 473.006 619.958 474.142 620.242 C 475.028 620.468 475.884 620.797 476.693 621.222 C 477.988 621.914 479.096 622.91 479.922 624.122 C 480.183 624.499 480.422 624.889 480.639 625.292 C 481.17 624.702 481.737 624.144 482.336 623.622 C 483.433 622.661 484.67 621.876 486.008 621.294 C 487.215 620.77 488.473 620.375 489.763 620.116 C 490.733 619.923 491.717 619.827 492.706 619.825 C 495.079 619.825 497.191 620.296 499.043 621.24 C 500.482 621.983 501.707 623.085 502.594 624.441 C 502.892 624.886 503.163 625.353 503.401 625.834 C 503.835 626.73 504.169 627.67 504.394 628.639 C 504.614 629.554 504.771 630.554 504.867 631.636 C 504.944 632.526 504.982 633.419 504.981 634.312 L 504.981 659.947 L 497.427 659.947 L 497.427 634.675 C 497.427 632.029 496.968 630.08 496.05 628.828 C 495.897 628.62 495.725 628.425 495.539 628.248 C 494.543 627.315 493.277 626.724 491.923 626.554 C 491.509 626.497 491.092 626.467 490.673 626.468 C 490.012 626.471 489.352 626.538 488.703 626.667 C 488.284 626.75 487.869 626.854 487.459 626.978 C 486.625 627.233 485.827 627.598 485.089 628.064 C 484.781 628.257 484.481 628.464 484.192 628.683 C 483.51 629.206 482.907 629.821 482.394 630.508 C 482.333 630.589 482.274 630.671 482.215 630.754 C 482.242 630.984 482.265 631.218 482.286 631.456 C 482.36 632.334 482.396 633.214 482.394 634.094 L 482.394 659.947 L 474.951 659.947 L 474.951 634.675 C 474.954 633.959 474.915 633.243 474.837 632.531 C 474.666 631.017 474.293 629.823 473.721 628.949 C 473.555 628.695 473.367 628.461 473.154 628.248 C 471.955 627.062 470.362 626.468 468.378 626.468 C 467.647 626.471 466.919 626.555 466.206 626.717 C 465.898 626.785 465.593 626.866 465.292 626.959 C 464.322 627.26 463.4 627.705 462.562 628.279 C 462.455 628.351 462.347 628.426 462.241 628.502 C 461.274 629.205 460.414 630.124 459.664 631.262 L 459.664 659.947 Z M 385.334 647.057 L 385.334 626.578 L 378.217 626.578 L 378.217 620.441 L 385.334 620.441 L 386.642 606.207 L 392.924 606.207 L 392.924 620.441 L 404.689 620.441 L 404.689 626.578 L 392.924 626.578 L 392.924 645.823 C 392.924 648.946 393.554 651.13 394.811 652.377 C 395.454 652.999 396.229 653.465 397.08 653.742 C 397.692 653.953 398.374 654.098 399.123 654.176 C 399.597 654.224 400.073 654.248 400.548 654.246 C 401.275 654.246 402.001 654.198 402.728 654.102 C 403.431 654.009 404.212 653.869 405.074 653.684 C 405.103 653.678 405.131 653.672 405.161 653.666 L 405.161 659.912 C 404.391 660.079 403.616 660.219 402.834 660.331 C 402.562 660.369 402.291 660.406 402.02 660.437 C 400.918 660.57 399.822 660.638 398.734 660.638 C 394.473 660.638 391.176 659.555 388.839 657.388 C 387.702 656.311 386.84 654.977 386.324 653.5 C 385.664 651.712 385.334 649.565 385.334 647.057 Z M 555.707 647.057 L 555.707 626.578 L 548.589 626.578 L 548.589 620.441 L 555.707 620.441 L 557.014 606.207 L 563.296 606.207 L 563.296 620.441 L 575.06 620.441 L 575.06 626.578 L 563.296 626.578 L 563.296 645.823 C 563.296 648.946 563.925 651.13 565.183 652.377 C 565.825 652.999 566.601 653.465 567.452 653.742 C 568.062 653.953 568.745 654.098 569.495 654.176 C 569.97 654.224 570.445 654.248 570.921 654.246 C 571.646 654.246 572.373 654.198 573.099 654.102 C 573.802 654.009 574.585 653.869 575.446 653.684 C 575.475 653.678 575.504 653.672 575.532 653.666 L 575.532 659.912 C 574.762 660.079 573.987 660.219 573.207 660.331 C 572.936 660.369 572.664 660.406 572.392 660.437 C 571.289 660.57 570.195 660.638 569.106 660.638 C 564.844 660.638 561.547 659.555 559.211 657.388 C 558.074 656.311 557.213 654.977 556.696 653.5 C 556.037 651.712 555.707 649.565 555.707 647.057 Z M 416.98 658.495 C 414.353 657.043 412.314 654.816 410.861 651.813 C 409.693 649.401 408.995 646.44 408.767 642.932 C 408.709 642.045 408.68 641.156 408.682 640.267 C 408.677 638.677 408.769 637.089 408.96 635.511 C 409.288 632.883 409.91 630.608 410.824 628.683 C 411.5 627.235 412.389 625.895 413.464 624.711 C 414.458 623.627 415.619 622.713 416.908 622.002 C 418.574 621.094 420.382 620.471 422.255 620.157 C 423.577 619.931 424.915 619.819 426.256 619.825 C 427.804 619.815 429.344 619.965 430.858 620.271 C 432.519 620.607 434.121 621.191 435.607 622.002 C 438.234 623.455 440.26 625.682 441.69 628.683 C 442.323 630.042 442.802 631.469 443.116 632.935 C 443.593 635.083 443.832 637.515 443.832 640.231 C 443.832 644.902 443.112 648.752 441.672 651.778 C 440.231 654.804 438.192 657.043 435.553 658.495 C 433.797 659.449 431.889 660.09 429.915 660.393 C 428.705 660.584 427.482 660.679 426.256 660.674 C 424.68 660.684 423.105 660.523 421.563 660.197 C 419.959 659.854 418.417 659.282 416.98 658.495 Z M 605.834 658.495 C 603.206 657.043 601.168 654.816 599.715 651.813 C 598.548 649.401 597.85 646.44 597.62 642.932 C 597.564 642.045 597.536 641.156 597.537 640.267 C 597.53 638.677 597.623 637.089 597.814 635.511 C 598.144 632.883 598.764 630.608 599.68 628.683 C 600.355 627.235 601.244 625.895 602.318 624.711 C 603.312 623.627 604.473 622.713 605.762 622.002 C 607.428 621.094 609.236 620.471 611.109 620.157 C 612.431 619.931 613.77 619.819 615.111 619.825 C 616.657 619.815 618.198 619.965 619.713 620.271 C 621.373 620.607 622.975 621.191 624.462 622.002 C 627.09 623.455 629.115 625.682 630.544 628.683 C 631.177 630.042 631.656 631.469 631.971 632.935 C 632.447 635.083 632.686 637.515 632.686 640.231 C 632.686 644.902 631.966 648.752 630.525 651.778 C 629.086 654.804 627.046 657.043 624.407 658.495 C 622.65 659.449 620.744 660.09 618.769 660.393 C 617.559 660.584 616.336 660.679 615.111 660.674 C 613.534 660.684 611.959 660.523 610.417 660.197 C 608.815 659.854 607.272 659.282 605.834 658.495 Z M 589.258 659.947 L 581.669 659.947 L 581.669 620.441 L 589.258 620.441 L 589.258 659.947 Z M 580.553 609.362 C 580.496 609.041 580.47 608.713 580.471 608.385 C 580.467 607.936 580.517 607.488 580.621 607.049 C 580.79 606.308 581.181 605.634 581.741 605.117 C 582.17 604.735 582.677 604.447 583.225 604.275 C 583.868 604.062 584.62 603.956 585.481 603.956 C 585.942 603.953 586.403 603.988 586.859 604.058 C 587.351 604.138 587.793 604.265 588.185 604.436 C 588.572 604.603 588.929 604.833 589.24 605.117 C 589.807 605.651 590.197 606.343 590.358 607.106 C 590.451 607.526 590.495 607.956 590.492 608.385 C 590.495 608.841 590.442 609.294 590.33 609.735 C 590.154 610.443 589.775 611.085 589.24 611.58 C 588.83 611.953 588.345 612.234 587.818 612.405 C 587.418 612.543 586.972 612.64 586.481 612.691 C 586.149 612.727 585.816 612.744 585.481 612.744 C 584.371 612.744 583.444 612.567 582.698 612.216 C 582.348 612.054 582.027 611.84 581.741 611.58 C 581.106 610.998 580.687 610.216 580.553 609.362 Z M 426.256 654.683 C 427.142 654.689 428.027 654.594 428.891 654.401 C 429.818 654.194 430.706 653.841 431.522 653.357 C 432.359 652.847 433.079 652.169 433.641 651.365 C 434.142 650.664 434.574 649.841 434.936 648.891 C 435.229 648.1 435.457 647.287 435.618 646.459 C 435.957 644.765 436.129 642.751 436.134 640.415 C 436.134 640.379 436.134 640.34 436.134 640.304 C 436.134 636.624 435.734 633.73 434.936 631.625 C 434.675 630.923 434.347 630.249 433.955 629.611 C 433.285 628.533 432.474 627.71 431.522 627.141 C 430.517 626.547 429.409 626.151 428.255 625.971 C 427.594 625.865 426.927 625.813 426.256 625.815 C 425.386 625.81 424.517 625.9 423.664 626.084 C 422.725 626.287 421.822 626.637 420.993 627.122 C 420.154 627.627 419.433 628.301 418.874 629.101 C 418.466 629.668 418.105 630.319 417.789 631.05 C 417.714 631.223 417.645 631.395 417.578 631.571 C 417.284 632.361 417.055 633.175 416.897 634.003 C 416.557 635.697 416.386 637.712 416.38 640.047 C 416.38 640.084 416.38 640.122 416.38 640.158 C 416.38 643.754 416.756 646.599 417.508 648.691 C 417.525 648.74 417.543 648.787 417.561 648.837 C 418.217 650.594 419.118 651.932 420.265 652.847 C 420.491 653.026 420.726 653.19 420.974 653.339 C 422.463 654.235 424.223 654.683 426.256 654.683 Z M 615.111 654.683 C 615.998 654.689 616.881 654.594 617.746 654.401 C 618.673 654.194 619.56 653.841 620.377 653.357 C 621.213 652.847 621.934 652.169 622.496 651.365 C 622.996 650.664 623.428 649.841 623.791 648.891 C 624.084 648.1 624.312 647.287 624.472 646.459 C 624.811 644.765 624.983 642.751 624.988 640.415 C 624.988 640.379 624.988 640.34 624.988 640.304 C 624.988 636.624 624.588 633.73 623.791 631.625 C 623.529 630.923 623.202 630.249 622.81 629.611 C 622.14 628.533 621.329 627.71 620.377 627.141 C 619.371 626.547 618.263 626.151 617.109 625.971 C 616.448 625.865 615.781 625.813 615.111 625.815 C 614.241 625.81 613.372 625.9 612.519 626.084 C 611.579 626.287 610.676 626.637 609.847 627.122 C 609.01 627.627 608.287 628.301 607.728 629.101 C 607.32 629.668 606.96 630.319 606.643 631.05 C 606.569 631.223 606.5 631.395 606.433 631.571 C 606.138 632.361 605.91 633.175 605.751 634.003 C 605.412 635.697 605.24 637.712 605.236 640.047 C 605.236 640.084 605.236 640.122 605.236 640.158 C 605.236 643.754 605.611 646.599 606.362 648.691 C 606.38 648.74 606.398 648.787 606.414 648.837 C 607.072 650.594 607.973 651.932 609.12 652.847 C 609.345 653.026 609.581 653.19 609.828 653.339 C 611.317 654.235 613.079 654.683 615.111 654.683 Z" vector-effect="non-scaling-stroke" style="fill: rgb(125, 125, 125);">
      <title>automation</title>
    </path>
    <path d="M 292.259 632.143 L 284.148 632.143 L 284.148 624.032 L 292.259 624.032 L 292.259 632.143" style="fill-opacity: 1; fill-rule: nonzero; stroke: none; fill: rgb(226, 103, 31); transform-origin: 288.203px 628.087px;" id="path-5" transform="matrix(-1, 0, 0, -1, -0.000021, 0.000056)"/>
    <path d="M 292.259 655.005 L 284.148 655.005 L 284.148 646.894 L 292.259 646.894 L 292.259 655.005" style="fill-opacity: 1; fill-rule: nonzero; stroke: none; fill: rgb(226, 103, 31); transform-origin: 288.203px 650.949px;" id="path-6" transform="matrix(-1, 0, 0, -1, -0.000021, 0.000058)"/>
  </g>
</svg>