<?xml version="1.0" encoding="utf-8"?>
<svg viewBox="0 0 800 800" lang="de" style="filter: none; shape-rendering: geometricprecision;" xmlns="http://www.w3.org/2000/svg">
  <defs/>
  <desc>v1.1</desc>
  <title>haus-automatisierung.com</title>
  <rect width="800" height="800" style="fill: rgb(28, 28, 28); visibility: hidden;">
    <title>Background</title>
  </rect>
  <ellipse style="fill: rgb(255, 255, 255);" cx="400" cy="400" rx="389.486" ry="389.486"/>
  <g transform="matrix(1.09129, 0, 0, 1.09129, -36.45488, -68.388153)" style="">
    <title>Logo</title>
    <g style="transform-origin: 640.11px 345.058px;" transform="matrix(0.698303, 0, 0, 0.698303, -224.915329, 100.53698)">
      <title>Gear</title>
      <path d="M 724.125 419.847 L 680.152 419.847 L 680.152 375.874 L 724.125 375.874 L 724.125 419.847" style="fill-opacity: 1; fill-rule: nonzero; stroke: none; fill: rgb(226, 103, 31); transform-box: fill-box; transform-origin: 50% 50%;" id="path120" transform="matrix(-1, 0, 0, -1, 0.000043, 0.000061)"/>
      <path d="M 717.404 312.301 L 680.425 312.301 L 680.425 275.321 L 717.404 275.321 L 717.404 312.301" style="fill-opacity: 1; fill-rule: nonzero; stroke: none; fill: rgb(226, 103, 31); transform-box: fill-box; transform-origin: 50% 50%;" id="path122" transform="matrix(-1, 0, 0, -1, -0.000026, 0.000033)"/>
      <path d="M 673.115 359.228 L 644.448 359.228 L 644.448 330.561 L 673.115 330.561 L 673.115 359.228" style="fill-opacity: 1; fill-rule: nonzero; stroke: none; fill: rgb(226, 103, 31); transform-box: fill-box; transform-origin: 50% 50%;" id="path124" transform="matrix(-1, 0, 0, -1, -0.000029, -0.000011)"/>
      <path d="M 896.832 375.857 L 841.589 375.857 L 841.589 321.318 L 896.832 321.318 L 896.832 375.857" style="fill-opacity: 1; fill-rule: nonzero; stroke: none; fill: rgb(226, 103, 31); transform-box: fill-box; transform-origin: 50% 50%;" id="path128" transform="matrix(-1, 0, 0, -1, 0.000037, 0.00004)"/>
      <path d="M 664.809 482.013 C 590.309 512.401 504.977 476.516 474.589 402.016 C 471.112 393.493 468.545 384.825 466.761 376.117 L 498.301 376.117 L 498.301 320.597 L 466.255 320.597 C 475.005 273.311 506.848 231.27 554.587 211.796 C 629.086 181.408 714.417 217.294 744.806 291.793 C 775.194 366.293 739.309 451.624 664.809 482.013 Z M 464.637 462.134 L 420.924 462.134 L 420.924 418.421 L 464.637 418.421 L 464.637 462.134 Z M 869.844 412.12 L 840.031 381.397 C 843.412 359.068 843.568 336.101 840.216 313.181 L 868.91 281.331 C 873.054 276.729 874.2 270.164 871.863 264.431 L 854.176 221.071 C 851.731 215.078 845.944 211.126 839.472 211.028 L 798.486 210.411 C 784.314 190.811 767.397 173.806 748.447 159.802 L 746.33 119.206 C 746.007 113.023 742.175 107.568 736.467 105.169 L 693.301 87.014 C 687.336 84.506 680.448 85.802 675.802 90.31 L 648.098 117.194 C 623.706 113.075 598.502 112.839 573.385 116.803 L 545.013 91.245 C 540.412 87.101 533.847 85.953 528.113 88.291 L 484.753 105.978 C 478.76 108.422 474.807 114.21 474.709 120.68 L 474.157 157.443 C 452.884 172.662 434.686 191.136 419.968 211.89 L 382.888 213.824 C 376.706 214.147 371.251 217.978 368.851 223.686 L 360.739 242.975 L 388.246 242.975 L 388.246 320.597 L 442.781 320.597 L 442.781 375.133 L 388.418 375.133 L 388.418 440.277 L 355.334 440.277 L 369.66 475.401 C 372.104 481.393 377.892 485.346 384.363 485.444 L 422.764 486.021 C 437.657 506.029 455.524 523.157 475.413 537.149 L 477.507 577.265 C 477.829 583.449 481.66 588.902 487.368 591.303 L 530.535 609.457 C 536.501 611.966 543.388 610.669 548.033 606.162 L 577.516 577.553 C 600.373 580.781 623.864 580.63 647.269 576.803 L 678.822 605.227 C 683.424 609.371 689.989 610.518 695.724 608.179 L 739.082 590.494 C 745.075 588.049 749.029 582.261 749.126 575.79 L 749.767 533.091 C 768.114 519.283 784.059 503.005 797.314 484.924 L 840.947 482.648 C 847.131 482.325 852.586 478.493 854.986 472.785 L 873.139 429.618 C 875.648 423.653 874.351 416.765 869.844 412.12" style="fill-opacity: 1; fill-rule: nonzero; stroke: none; transform-box: fill-box; transform-origin: 50% 50%; fill: rgb(125, 125, 125);" id="path134" transform="matrix(-1, 0, 0, -1, -0.000061, 0.000053)">
        <title>Gear</title>
      </path>
      <path d="M 724.405 412.101 L 694.592 381.378 C 697.975 359.049 698.129 336.082 694.777 313.162 L 723.471 281.312 C 727.615 276.712 728.763 270.145 726.424 264.412 L 708.737 221.052 C 706.292 215.059 700.505 211.107 694.033 211.009 L 653.047 210.392 C 638.875 190.792 621.958 173.787 603.008 159.783 L 600.891 119.188 C 600.568 113.004 596.736 107.549 591.028 105.15 L 547.862 86.995 C 543.757 85.268 539.229 85.384 535.281 87.07 C 559.115 136.305 572.639 191.455 573.094 249.718 C 583.914 261.814 592.895 275.909 599.367 291.774 C 629.755 366.274 593.868 451.605 519.37 481.994 C 509.621 485.97 499.685 488.785 489.711 490.553 C 453.755 535.444 407.854 572.015 355.334 596.922 L 385.096 609.438 C 391.062 611.947 397.949 610.65 402.594 606.143 L 432.077 577.534 C 454.934 580.762 478.425 580.611 501.831 576.784 L 533.383 605.208 C 537.985 609.352 544.55 610.5 550.285 608.16 L 593.643 590.475 C 599.636 588.03 603.59 582.242 603.687 575.771 L 604.328 533.072 C 622.675 519.264 638.62 502.986 651.875 484.905 L 695.508 482.629 C 701.692 482.306 707.147 478.474 709.547 472.766 L 727.7 429.599 C 730.209 423.634 728.912 416.746 724.405 412.101" style="fill-opacity: 1; fill-rule: nonzero; stroke: none; transform-box: fill-box; transform-origin: 50% 50%; fill: rgb(101, 101, 101);" id="path136" transform="matrix(-1, 0, 0, -1, 0.000011, -0.000014)">
        <title>GearShadow</title>
      </path>
      <path d="M 965.165 296.375 L 924.806 296.375 L 924.806 256.016 L 965.165 256.016 L 965.165 296.375" style="fill-opacity: 1; fill-rule: nonzero; stroke: none; transform-box: fill-box; transform-origin: 50% 50%; fill: rgb(125, 125, 125);" id="path130" transform="matrix(-1, 0, 0, -1, 0.000021, -0.000003)"/>
      <path d="M 1013.953 365.072 L 973.594 365.072 L 973.594 324.715 L 1013.953 324.715 L 1013.953 365.072" style="fill-opacity: 1; fill-rule: nonzero; stroke: none; fill: rgb(125, 125, 123); transform-box: fill-box; transform-origin: 50% 50%;" id="path132" transform="matrix(-1, 0, 0, -1, 0.000052, -0.000004)"/>
      <path d="M 947.475 453.571 L 890.062 453.571 L 890.062 396.159 L 947.475 396.159 L 947.475 453.571" style="fill-opacity: 1; fill-rule: nonzero; stroke: none; transform-box: fill-box; transform-origin: 50% 50%; fill: rgb(125, 125, 125);" id="path126" transform="matrix(-1, 0, 0, -1, -0.000022, 0)"/>
      <path d="M 1013.953 365.58 L 973.594 365.58 L 973.594 325.223 L 1013.953 325.223 L 1013.953 365.58" style="fill-opacity: 1; fill-rule: nonzero; stroke: none; transform-origin: 993.773px 345.401px; fill: rgb(125, 125, 125);" id="path-1" transform="matrix(-1, 0, 0, -1, -0.000082, 0.000036)"/>
    </g>
    <path class="fil1" d="M 123.77 344.607 C 123.77 341.735 124.864 338.792 127.122 336.602 L 392.317 115.126 C 394.472 113.07 397.238 112.043 400 112.028 C 402.762 112.043 405.528 113.07 407.683 115.126 L 672.878 336.602 C 675.136 338.792 676.23 341.735 676.23 344.607 L 676.299 344.607 L 676.299 425.972 L 653.788 425.972 L 653.788 349.397 L 399.079 140.812 L 146.212 349.397 L 146.212 425.972 L 123.701 425.972 L 123.701 344.607 L 123.77 344.607 Z M 653.788 586.626 L 653.788 465.807 L 676.299 465.807 L 676.299 597.849 C 676.299 604.075 671.304 609.07 665.077 609.07 L 508.343 609.07 L 508.343 586.626 L 653.788 586.626 Z M 146.212 465.807 L 146.212 586.626 L 291.657 586.626 L 291.657 609.07 L 134.923 609.07 C 128.696 609.07 123.701 604.075 123.701 597.849 L 123.701 465.807 L 146.212 465.807 Z" style="fill-rule: nonzero; fill: rgb(226, 103, 31);">
      <title>House</title>
    </path>
    <path d="M 151.772 459.925 L 123.589 459.925 L 123.589 431.743 L 151.772 431.743 L 151.772 459.925" style="fill-opacity: 1; fill-rule: nonzero; stroke: none; transform-box: fill-box; transform-origin: 50% 50%; fill: rgb(125, 125, 125);" id="path-2" transform="matrix(-1, 0, 0, -1, -0.00001, -0.000019)">
      <title>Left Brick</title>
    </path>
  </g>
</svg>