<?xml version="1.0" encoding="utf-8"?>
<svg viewBox="0 0 800 800" xmlns="http://www.w3.org/2000/svg" xmlns:bx="https://boxy-svg.com">
  <defs>
    <bx:guide x="10" y="400" angle="90"/>
    <bx:guide x="400" y="10" angle="0"/>
    <bx:guide x="630" y="10" angle="0"/>
    <bx:guide x="170" y="10" angle="0"/>
    <bx:guide x="10" y="446.7" angle="90"/>
    <bx:guide x="578.012" y="384.775" angle="90"/>
  </defs>
  <ellipse style="stroke: rgb(226, 103, 31); stroke-width: 20px;" cx="400" cy="400" rx="375.176" ry="375.176"/>
  <path style="fill: none; stroke: rgb(226, 103, 31); stroke-width: 20px; transform-box: fill-box; transform-origin: 50% 50%;" d="M 195.437 606.571 C 195.437 606.571 133.016 490.485 179.625 339.736" transform="matrix(0.999902, -0.013965, 0.013965, 0.999902, 0, 0)">
    <title>Wall</title>
  </path>
  <path style="fill: none; stroke: rgb(226, 103, 31); stroke-width: 20px;" d="M 119.583 311.168 C 119.583 311.168 248.458 275.373 355.993 157.207 C 467.28 235.622 596.323 234.74 596.323 234.74">
    <title>Roof</title>
  </path>
  <path d="M 644.437 333.526 L 565.512 333.526 Q 565.603 319.259 567.387 310.616 Q 569.17 301.974 573.377 296.029 Q 577.584 290.085 585.632 284.415 Q 591.028 280.665 597.475 276.732 Q 603.923 272.8 607.581 270.651 Q 611.239 268.501 615.355 265.575 Q 619.47 262.648 621.619 260.087 Q 623.769 257.527 625.689 253.777 Q 627.61 250.027 628.341 245.226 Q 629.073 240.425 629.073 233.931 Q 629.073 229.999 629.027 227.85 Q 628.982 225.7 628.661 222.82 Q 628.341 219.939 627.747 218.475 Q 627.152 217.012 626.101 215.183 Q 625.049 213.354 623.449 212.485 Q 621.848 211.616 619.562 210.747 Q 617.275 209.879 614.166 209.559 Q 611.056 209.238 607.032 209.238 Q 599.442 209.238 595.097 209.924 Q 590.753 210.61 587.415 212.988 Q 584.077 215.366 582.568 219.71 Q 581.059 224.054 580.419 231.462 L 566.884 228.261 Q 566.792 227.438 566.792 225.792 Q 566.792 210.153 576.578 203.34 Q 586.364 196.526 605.661 196.526 Q 613.16 196.526 618.556 197.121 Q 623.952 197.715 628.707 199.27 Q 633.463 200.825 636.572 203.523 Q 639.682 206.22 641.922 210.382 Q 644.163 214.543 645.123 220.35 Q 646.084 226.158 646.084 233.931 Q 646.084 246.552 643.02 255.103 Q 639.956 263.654 634.286 269.142 Q 628.616 274.629 618.647 280.025 Q 616.269 281.397 612.382 283.591 Q 608.496 285.786 606.438 286.975 Q 604.38 288.164 601.225 290.085 Q 598.07 292.005 596.424 293.286 Q 594.777 294.566 592.4 296.578 Q 590.022 298.59 588.787 300.282 Q 587.552 301.974 586.089 304.352 Q 584.626 306.73 583.894 309.153 Q 583.163 311.577 582.66 314.595 Q 582.157 317.613 582.065 320.997 L 644.437 320.997 Z" style="fill: rgb(125, 125, 123); visibility: hidden;"/>
  <path d="M 596.323 384.775 L 596.323 336.408 C 596.323 330.407 597.017 325.72 598.406 322.349 C 598.515 322.085 598.631 321.824 598.754 321.566 C 600.375 318.154 602.806 315.339 606.047 313.121 C 608.688 311.314 611.838 309.451 615.496 307.532 C 616.351 307.083 617.211 306.643 618.075 306.211 L 665.418 282.156 C 665.749 281.968 666.073 281.769 666.391 281.56 C 667.088 281.097 667.617 280.656 667.977 280.237 C 668.209 279.961 668.385 279.643 668.497 279.3 C 668.662 278.814 668.745 278.23 668.745 277.55 L 668.745 248.12 C 668.745 246.36 668.047 245.298 666.652 244.934 C 666.248 244.835 665.834 244.788 665.418 244.793 L 599.906 244.793 L 599.906 224.893 L 659.532 223.869 C 660.445 223.832 661.359 223.814 662.273 223.813 C 667.92 223.811 672.763 224.535 676.801 225.985 C 678.035 226.426 679.235 226.958 680.389 227.58 C 683.42 229.18 686.104 231.365 688.286 234.008 C 689.641 235.677 690.772 237.516 691.649 239.479 C 693.952 244.597 695.103 250.739 695.103 257.905 L 695.103 275.758 C 695.117 277.94 694.946 280.119 694.592 282.271 C 693.839 286.663 692.261 290.207 689.857 292.904 C 686.36 296.828 680.773 300.752 673.095 304.676 L 627.288 327.708 C 626.783 327.958 626.292 328.236 625.819 328.542 C 624.811 329.199 624.092 329.889 623.664 330.612 C 623.584 330.748 623.512 330.889 623.449 331.034 C 623.275 331.453 623.14 331.886 623.045 332.329 C 622.84 333.244 622.722 334.361 622.689 335.682 C 622.684 335.924 622.681 336.166 622.682 336.408 L 622.682 362.255 L 694.336 362.255 L 694.336 384.775 L 596.323 384.775 Z" vector-effect="non-scaling-stroke" style="fill: rgb(125, 123, 123);"/>
  <g style="transform-origin: 640.11px 345.058px;" transform="matrix(0.698303, 0, 0, 0.698303, -240.041778, 101.766871)">
    <path d="M 743.911 419.847 L 699.938 419.847 L 699.938 375.874 L 743.911 375.874 L 743.911 419.847" style="fill-opacity: 1; fill-rule: nonzero; stroke: none; transform-box: fill-box; transform-origin: 50% 50%; fill: rgb(226, 103, 31);" id="path120" transform="matrix(-1, 0, 0, -1, -0.000041, 0.000024)"/>
    <path d="M 737.19 312.301 L 700.211 312.301 L 700.211 275.321 L 737.19 275.321 L 737.19 312.301" style="fill-opacity: 1; fill-rule: nonzero; stroke: none; transform-box: fill-box; transform-origin: 50% 50%; fill: rgb(226, 103, 31);" id="path122" transform="matrix(-1, 0, 0, -1, 0.000041, 0.000004)"/>
    <path d="M 692.901 359.228 L 664.234 359.228 L 664.234 330.561 L 692.901 330.561 L 692.901 359.228" style="fill-opacity: 1; fill-rule: nonzero; stroke: none; transform-box: fill-box; transform-origin: 50% 50%; fill: rgb(226, 103, 31);" id="path124" transform="matrix(-1, 0, 0, -1, -0.000053, -0.000016)"/>
    <path d="M 975.135 443.706 L 917.722 443.706 L 917.722 386.294 L 975.135 386.294 L 975.135 443.706" style="fill-opacity: 1; fill-rule: nonzero; stroke: none; transform-box: fill-box; transform-origin: 50% 50%; fill: rgb(226, 103, 31);" id="path126" transform="matrix(-1, 0, 0, -1, -0.00001, 0)"/>
    <path d="M 916.618 375.857 L 861.375 375.857 L 861.375 321.318 L 916.618 321.318 L 916.618 375.857" style="fill-opacity: 1; fill-rule: nonzero; stroke: none; transform-box: fill-box; transform-origin: 50% 50%; fill: rgb(226, 103, 31);" id="path128" transform="matrix(-1, 0, 0, -1, 0.000034, 0.000028)"/>
    <path d="M 961.623 310.814 L 921.264 310.814 L 921.264 270.455 L 961.623 270.455 L 961.623 310.814" style="fill-opacity: 1; fill-rule: nonzero; stroke: none; transform-box: fill-box; transform-origin: 50% 50%; fill: rgb(226, 103, 31);" id="path130" transform="matrix(-1, 0, 0, -1, -0.000014, 0.000013)"/>
    <path d="M 1021.587 365.072 L 981.228 365.072 L 981.228 324.715 L 1021.587 324.715 L 1021.587 365.072" style="fill-opacity: 1; fill-rule: nonzero; stroke: none; transform-box: fill-box; transform-origin: 50% 50%; fill: rgb(226, 103, 31);" id="path132" transform="matrix(-1, 0, 0, -1, 0.00001, 0.000007)"/>
    <path d="M 684.595 482.013 C 610.095 512.401 524.763 476.516 494.375 402.016 C 490.898 393.493 488.331 384.825 486.547 376.117 L 518.087 376.117 L 518.087 320.597 L 486.041 320.597 C 494.791 273.311 526.634 231.27 574.373 211.796 C 648.872 181.408 734.203 217.294 764.592 291.793 C 794.98 366.293 759.095 451.624 684.595 482.013 Z M 484.423 462.134 L 440.71 462.134 L 440.71 418.421 L 484.423 418.421 L 484.423 462.134 Z M 889.63 412.12 L 859.817 381.397 C 863.198 359.068 863.354 336.101 860.002 313.181 L 888.696 281.331 C 892.84 276.729 893.986 270.164 891.649 264.431 L 873.962 221.071 C 871.517 215.078 865.73 211.126 859.258 211.028 L 818.272 210.411 C 804.1 190.811 787.183 173.806 768.233 159.802 L 766.116 119.206 C 765.793 113.023 761.961 107.568 756.253 105.169 L 713.087 87.014 C 707.122 84.506 700.234 85.802 695.588 90.31 L 667.884 117.194 C 643.492 113.075 618.288 112.839 593.171 116.803 L 564.799 91.245 C 560.198 87.101 553.633 85.953 547.899 88.291 L 504.539 105.978 C 498.546 108.422 494.593 114.21 494.495 120.68 L 493.943 157.443 C 472.67 172.662 454.472 191.136 439.754 211.89 L 402.674 213.824 C 396.492 214.147 391.037 217.978 388.637 223.686 L 380.525 242.975 L 408.032 242.975 L 408.032 320.597 L 462.567 320.597 L 462.567 375.133 L 408.204 375.133 L 408.204 440.277 L 375.12 440.277 L 389.446 475.401 C 391.89 481.393 397.678 485.346 404.149 485.444 L 442.55 486.021 C 457.443 506.029 475.31 523.157 495.199 537.149 L 497.293 577.265 C 497.615 583.449 501.446 588.902 507.154 591.303 L 550.321 609.457 C 556.287 611.966 563.174 610.669 567.819 606.162 L 597.302 577.553 C 620.159 580.781 643.65 580.63 667.055 576.803 L 698.608 605.227 C 703.21 609.371 709.775 610.518 715.51 608.179 L 758.868 590.494 C 764.861 588.049 768.815 582.261 768.912 575.79 L 769.553 533.091 C 787.9 519.283 803.845 503.005 817.1 484.924 L 860.733 482.648 C 866.917 482.325 872.372 478.493 874.772 472.785 L 892.925 429.618 C 895.434 423.653 894.137 416.765 889.63 412.12" style="fill-opacity: 1; fill-rule: nonzero; stroke: none; transform-box: fill-box; transform-origin: 50% 50%; fill: rgb(125, 125, 123);" id="path134" transform="matrix(-1, 0, 0, -1, 0.000012, 0.000011)"/>
    <path d="M 744.191 412.101 L 714.378 381.378 C 717.761 359.049 717.915 336.082 714.563 313.162 L 743.257 281.312 C 747.401 276.712 748.549 270.145 746.21 264.412 L 728.523 221.052 C 726.078 215.059 720.291 211.107 713.819 211.009 L 672.833 210.392 C 658.661 190.792 641.744 173.787 622.794 159.783 L 620.677 119.188 C 620.354 113.004 616.522 107.549 610.814 105.15 L 567.648 86.995 C 563.543 85.268 559.015 85.384 555.067 87.07 C 578.901 136.305 592.425 191.455 592.88 249.718 C 603.7 261.814 612.681 275.909 619.153 291.774 C 649.541 366.274 613.654 451.605 539.156 481.994 C 529.407 485.97 519.471 488.785 509.497 490.553 C 473.541 535.444 427.64 572.015 375.12 596.922 L 404.882 609.438 C 410.848 611.947 417.735 610.65 422.38 606.143 L 451.863 577.534 C 474.72 580.762 498.211 580.611 521.617 576.784 L 553.169 605.208 C 557.771 609.352 564.336 610.5 570.071 608.16 L 613.429 590.475 C 619.422 588.03 623.376 582.242 623.473 575.771 L 624.114 533.072 C 642.461 519.264 658.406 502.986 671.661 484.905 L 715.294 482.629 C 721.478 482.306 726.933 478.474 729.333 472.766 L 747.486 429.599 C 749.995 423.634 748.698 416.746 744.191 412.101" style="fill-opacity: 1; fill-rule: nonzero; stroke: none; transform-box: fill-box; transform-origin: 50% 50%; fill: rgb(101, 101, 101);" id="path136" transform="matrix(-1, 0, 0, -1, 0.000067, 0.000028)"/>
  </g>
</svg>