<?xml version="1.0" encoding="utf-8"?>
<svg viewBox="0 0 125 35" xmlns="http://www.w3.org/2000/svg">
  <path d="M 125.05 26.25 C 125.05 31.082 121.132 35 116.3 35 C 116.283 35 116.267 35 116.25 35 L 15 35.5 L 15 17.5 L 8.75 17.5 C 3.941 17.473 0.05 13.565 0.05 8.75 C 0.05 3.935 3.941 0.027 8.75 0 L 110 0 L 110 17.5 C 110.017 17.5 116.283 17.5 116.3 17.5 C 121.132 17.5 125.05 21.418 125.05 26.25 Z M 4.8 8.75 C 4.8 10.407 6.143 11.75 7.8 11.75 L 9.8 11.75 C 11.457 11.75 12.8 10.407 12.8 8.75 C 12.8 7.093 11.457 5.75 9.8 5.75 L 7.8 5.75 C 6.143 5.75 4.8 7.093 4.8 8.75 Z M 112.2 26.25 C 112.2 27.907 113.543 29.25 115.2 29.25 L 117.2 29.25 C 118.857 29.25 120.2 27.907 120.2 26.25 C 120.2 24.593 118.857 23.25 117.2 23.25 L 115.2 23.25 C 113.543 23.25 112.2 24.593 112.2 26.25 Z" style="fill: rgb(62, 130, 145);"/>
  <ellipse style="fill: rgb(216, 216, 216);" cx="36.5" cy="17.5" rx="10" ry="10"/>
  <ellipse style="fill: rgb(216, 216, 216);" cx="88.5" cy="17.5" rx="10" ry="10"/>
  <ellipse style="fill: rgb(123, 123, 123);" cx="36.5" cy="17.5" rx="3.5" ry="3.5"/>
  <ellipse style="fill: rgb(123, 123, 123);" cx="88.5" cy="17.5" rx="3.5" ry="3.5"/>
</svg>