<?xml version="1.0" encoding="utf-8"?>
<svg viewBox="0 0 67 19" xmlns="http://www.w3.org/2000/svg">
  <path style="fill: rgb(123, 123, 123);" d="M 2 1.5 L 18 1.5 L 18 17.5 L 2 17.5 C 0.895 17.5 0 16.605 0 15.5 L 0 3.5 C 0 2.395 0.895 1.5 2 1.5 Z M 8.1 5.3 C 5.78 5.3 3.9 7.18 3.9 9.5 C 3.9 11.82 5.78 13.7 8.1 13.7 C 10.42 13.7 12.3 11.82 12.3 9.5 C 12.3 7.18 10.42 5.3 8.1 5.3 Z"/>
  <path d="M 24.5 3.5 L 24.5 15.5 L 18 15.5 L 18 17.5 L 2 17.5 C 0.895 17.5 0 16.605 0 15.5 L 0 3.5 C 0 2.395 0.895 1.5 2 1.5 L 18 1.5 L 18 3.5 Z M 8.1 5.3 C 5.78 5.3 3.9 7.18 3.9 9.5 C 3.9 11.82 5.78 13.7 8.1 13.7 C 10.42 13.7 12.3 11.82 12.3 9.5 C 12.3 7.18 10.42 5.3 8.1 5.3 Z" style="fill: rgb(123, 123, 123);"/>
  <path d="M 67 3.5 L 67 15.5 L 60.5 15.5 L 60.5 17.5 L 44.5 17.5 C 43.395 17.5 42.5 16.605 42.5 15.5 L 42.5 3.5 C 42.5 2.395 43.395 1.5 44.5 1.5 L 60.5 1.5 L 60.5 3.5 L 67 3.5 Z M 50.6 5.3 C 48.28 5.3 46.4 7.18 46.4 9.5 C 46.4 11.82 48.28 13.7 50.6 13.7 C 52.92 13.7 54.8 11.82 54.8 9.5 C 54.8 7.18 52.92 5.3 50.6 5.3 Z" style="fill: rgb(123, 123, 123);" transform="matrix(-1, 0, 0, -1, 109.5, 19)"/>
  <rect style="fill: rgb(123, 123, 123);" x="24.5" y="8.5" width="18" height="2"/>
  <rect style="fill: rgb(46, 162, 224); fill-opacity: 0.9;" x="19" y="0" width="29" height="19" rx="1" ry="1"/>
  <text style="fill: rgb(255, 255, 255); font-family: &quot;DIN Alternate&quot;; font-size: 12px; white-space: pre;" x="26.946" y="9.629" transform="matrix(0, 1, -1, 0, 38.842609, -26.095999)">200</text>
</svg>