<?xml version="1.0" encoding="utf-8"?>
<svg viewBox="0 0 67 19" xmlns="http://www.w3.org/2000/svg">
  <path style="fill: rgb(123, 123, 123);" d="M 2 1.5 L 18 1.5 L 18 17.5 L 2 17.5 C 0.895 17.5 0 16.605 0 15.5 L 0 3.5 C 0 2.395 0.895 1.5 2 1.5 Z M 8.1 5.3 C 5.78 5.3 3.9 7.18 3.9 9.5 C 3.9 11.82 5.78 13.7 8.1 13.7 C 10.42 13.7 12.3 11.82 12.3 9.5 C 12.3 7.18 10.42 5.3 8.1 5.3 Z"/>
  <path d="M 24.5 3.5 L 24.5 15.5 L 18 15.5 L 18 17.5 L 2 17.5 C 0.895 17.5 0 16.605 0 15.5 L 0 3.5 C 0 2.395 0.895 1.5 2 1.5 L 18 1.5 L 18 3.5 Z M 8.1 5.3 C 5.78 5.3 3.9 7.18 3.9 9.5 C 3.9 11.82 5.78 13.7 8.1 13.7 C 10.42 13.7 12.3 11.82 12.3 9.5 C 12.3 7.18 10.42 5.3 8.1 5.3 Z" style="fill: rgb(123, 123, 123);"/>
  <path d="M 67 3.5 L 67 15.5 L 60.5 15.5 L 60.5 17.5 L 44.5 17.5 C 43.395 17.5 42.5 16.605 42.5 15.5 L 42.5 3.5 C 42.5 2.395 43.395 1.5 44.5 1.5 L 60.5 1.5 L 60.5 3.5 L 67 3.5 Z M 50.6 5.3 C 48.28 5.3 46.4 7.18 46.4 9.5 C 46.4 11.82 48.28 13.7 50.6 13.7 C 52.92 13.7 54.8 11.82 54.8 9.5 C 54.8 7.18 52.92 5.3 50.6 5.3 Z" style="fill: rgb(123, 123, 123);" transform="matrix(-1, 0, 0, -1, 109.5, 19)"/>
  <rect style="fill: rgb(123, 123, 123);" x="24.5" y="8.5" width="18" height="2"/>
  <rect style="fill: rgb(46, 162, 224); fill-opacity: 0.9;" x="19" y="0" width="29" height="19" rx="1" ry="1"/>
  <path d="M 27.333 9.629 L 32.202 9.629 L 32.202 8.404 L 28.938 8.404 L 31.686 4.959 Q 32.202 4.303 32.202 3.459 Q 32.19 2.404 31.493 1.719 Q 30.807 1.027 29.706 1.016 Q 28.721 1.027 28.048 1.707 Q 27.38 2.404 27.333 3.471 L 28.551 3.471 Q 28.616 2.885 28.962 2.563 Q 29.296 2.24 29.8 2.24 Q 30.368 2.252 30.678 2.609 Q 30.977 2.967 30.977 3.447 Q 30.977 3.629 30.93 3.834 Q 30.86 4.051 30.667 4.303 L 27.333 8.475 Z M 36.784 7.168 Q 36.749 8.463 35.583 8.475 Q 34.411 8.463 34.387 7.168 L 34.387 3.547 Q 34.411 2.264 35.583 2.24 Q 36.749 2.264 36.784 3.547 Z M 33.163 7.238 Q 33.174 8.416 33.919 9.055 Q 34.616 9.688 35.583 9.699 Q 36.579 9.688 37.276 9.055 Q 37.985 8.416 38.008 7.238 L 38.008 3.471 Q 37.985 2.287 37.276 1.649 Q 36.579 1.016 35.583 1.016 Q 34.616 1.016 33.919 1.649 Q 33.174 2.287 33.163 3.471 Z M 42.543 7.168 Q 42.508 8.463 41.342 8.475 Q 40.17 8.463 40.147 7.168 L 40.147 3.547 Q 40.17 2.264 41.342 2.24 Q 42.508 2.264 42.543 3.547 Z M 38.922 7.238 Q 38.934 8.416 39.678 9.055 Q 40.376 9.688 41.342 9.699 Q 42.338 9.688 43.036 9.055 Q 43.745 8.416 43.768 7.238 L 43.768 3.471 Q 43.745 2.287 43.036 1.649 Q 42.338 1.016 41.342 1.016 Q 40.376 1.016 39.678 1.649 Q 38.934 2.287 38.922 3.471 Z" transform="matrix(0, 1, -1, 0, 38.842609, -26.095999)" style="fill: rgb(255, 255, 255); white-space: pre;"/>
</svg>