<?xml version="1.0" encoding="utf-8"?>
<svg viewBox="0 0 67 19" xmlns="http://www.w3.org/2000/svg">
  <path style="fill: rgb(123, 123, 123);" d="M 2 1.5 L 18 1.5 L 18 17.5 L 2 17.5 C 0.895 17.5 0 16.605 0 15.5 L 0 3.5 C 0 2.395 0.895 1.5 2 1.5 Z M 8.1 5.3 C 5.78 5.3 3.9 7.18 3.9 9.5 C 3.9 11.82 5.78 13.7 8.1 13.7 C 10.42 13.7 12.3 11.82 12.3 9.5 C 12.3 7.18 10.42 5.3 8.1 5.3 Z"/>
  <path d="M 24.5 3.5 L 24.5 15.5 L 18 15.5 L 18 17.5 L 2 17.5 C 0.895 17.5 0 16.605 0 15.5 L 0 3.5 C 0 2.395 0.895 1.5 2 1.5 L 18 1.5 L 18 3.5 Z M 8.1 5.3 C 5.78 5.3 3.9 7.18 3.9 9.5 C 3.9 11.82 5.78 13.7 8.1 13.7 C 10.42 13.7 12.3 11.82 12.3 9.5 C 12.3 7.18 10.42 5.3 8.1 5.3 Z" style="fill: rgb(123, 123, 123);"/>
  <path d="M 67 3.5 L 67 15.5 L 60.5 15.5 L 60.5 17.5 L 44.5 17.5 C 43.395 17.5 42.5 16.605 42.5 15.5 L 42.5 3.5 C 42.5 2.395 43.395 1.5 44.5 1.5 L 60.5 1.5 L 60.5 3.5 L 67 3.5 Z M 50.6 5.3 C 48.28 5.3 46.4 7.18 46.4 9.5 C 46.4 11.82 48.28 13.7 50.6 13.7 C 52.92 13.7 54.8 11.82 54.8 9.5 C 54.8 7.18 52.92 5.3 50.6 5.3 Z" style="fill: rgb(123, 123, 123);" transform="matrix(-1, 0, 0, -1, 109.5, 19)"/>
  <rect style="fill: rgb(123, 123, 123);" x="24.5" y="8.5" width="18" height="2"/>
  <rect style="fill: rgb(46, 162, 224); fill-opacity: 0.9;" x="19" y="0" width="29" height="19" rx="1" ry="1"/>
  <path d="M 29.272 2.381 L 29.272 9.629 L 30.497 9.629 L 30.497 1.086 L 29.272 1.086 L 28.059 1.971 L 28.059 3.272 L 28.059 3.272 L 29.272 2.381 Z M 33.092 9.629 L 37.962 9.629 L 37.962 8.404 L 34.698 8.404 L 37.446 4.959 Q 37.962 4.303 37.962 3.459 Q 37.95 2.404 37.253 1.719 Q 36.567 1.027 35.465 1.016 Q 34.481 1.027 33.807 1.707 Q 33.139 2.404 33.092 3.471 L 34.311 3.471 Q 34.376 2.885 34.721 2.563 Q 35.055 2.24 35.559 2.24 Q 36.128 2.252 36.438 2.609 Q 36.737 2.967 36.737 3.447 Q 36.737 3.629 36.69 3.834 Q 36.62 4.051 36.426 4.303 L 33.092 8.475 Z M 39.063 5.703 L 40.217 5.703 Q 40.434 5.311 40.71 5.152 Q 40.985 5 41.319 5 Q 41.694 5 41.946 5.106 Q 42.198 5.234 42.327 5.451 Q 42.567 5.908 42.555 6.641 Q 42.555 6.94 42.543 7.256 Q 42.52 7.578 42.415 7.854 Q 42.315 8.129 42.063 8.299 Q 41.799 8.475 41.36 8.475 Q 40.335 8.463 40.135 7.479 L 38.911 7.479 Q 39.086 8.656 39.819 9.184 Q 40.54 9.699 41.407 9.699 Q 42.051 9.688 42.52 9.4 Q 43.001 9.125 43.252 8.791 Q 43.54 8.451 43.663 8.012 Q 43.78 7.566 43.78 6.734 Q 43.78 6.195 43.745 5.826 Q 43.71 5.463 43.627 5.211 Q 43.469 4.748 43.112 4.397 Q 42.872 4.133 42.485 3.951 Q 42.075 3.787 41.583 3.775 Q 40.815 3.775 40.217 4.244 L 40.217 4.244 L 40.217 2.311 L 43.616 2.311 L 43.616 1.086 L 39.063 1.086 Z" transform="matrix(0, 1, -1, 0, 38.842609, -26.095999)" style="fill: rgb(255, 255, 255); white-space: pre;"/>
</svg>